<?xml version="1.0" encoding="UTF-8"?>
<!DOCTYPE svg PUBLIC "-//W3C//DTD SVG 1.1//EN" "http://www.w3.org/Graphics/SVG/1.1/DTD/svg11.dtd">
<svg xmlns="http://www.w3.org/2000/svg" version="1.1" width="690px" height="362px" style="shape-rendering:geometricPrecision; text-rendering:geometricPrecision; image-rendering:optimizeQuality; fill-rule:evenodd; clip-rule:evenodd" xmlns:xlink="http://www.w3.org/1999/xlink">
<g><path style="opacity:0.99" fill="#fefefe" d="M 272.5,57.5 C 320.834,57.3333 369.168,57.5 417.5,58C 448.788,62.6257 465.621,80.7924 468,112.5C 468.667,158.167 468.667,203.833 468,249.5C 466.089,275.399 452.922,292.566 428.5,301C 420.597,302.762 412.597,303.762 404.5,304C 360.152,304.902 315.819,304.569 271.5,303C 237.284,297.444 220.451,277.277 221,242.5C 220.064,196.482 220.397,150.482 222,104.5C 227.469,76.5287 244.302,60.862 272.5,57.5 Z"/></g>
<g><path style="opacity:1" fill="#60bb48" d="M 402.5,188.5 C 413.654,189.495 424.988,189.828 436.5,189.5C 436.5,190.833 436.5,192.167 436.5,193.5C 428.961,234.542 404.961,260.375 364.5,271C 314.588,278.133 279.088,258.966 258,213.5C 243.529,166.579 256.362,129.079 296.5,101C 323.556,86.6032 351.556,84.6032 380.5,95C 413.699,109.911 432.366,135.411 436.5,171.5C 425.162,171.333 413.828,171.5 402.5,172C 401.175,177.599 401.175,183.099 402.5,188.5 Z"/></g>
<g><path style="opacity:1" fill="#fbfdfb" d="M 331.5,127.5 C 356.96,124.777 372.127,135.777 377,160.5C 375.509,162.004 373.676,162.837 371.5,163C 351.14,166.171 330.806,169.338 310.5,172.5C 310.147,189.958 316.481,204.458 329.5,216C 344.1,223.928 358.1,222.928 371.5,213C 375.554,208.359 379.221,203.526 382.5,198.5C 384.609,198.775 385.942,199.942 386.5,202C 377.928,228.799 359.594,240.132 331.5,236C 315.396,231.903 304.229,222.07 298,206.5C 290.042,187.107 290.709,168.107 300,149.5C 307.942,138.374 318.442,131.041 331.5,127.5 Z"/></g>
<g><path style="opacity:1" fill="#63bc4a" d="M 330.5,135.5 C 344.837,135.341 352.67,142.341 354,156.5C 353.097,157.701 351.931,158.535 350.5,159C 337.198,161.162 323.865,162.995 310.5,164.5C 311.025,150.408 317.692,140.742 330.5,135.5 Z"/></g>
<g><path style="opacity:1" fill="#dff1da" d="M 402.5,188.5 C 414.167,188.5 425.833,188.5 437.5,188.5C 437.784,190.415 437.451,192.081 436.5,193.5C 436.5,192.167 436.5,190.833 436.5,189.5C 424.988,189.828 413.654,189.495 402.5,188.5 Z"/></g>
</svg>
