<?xml version="1.0" encoding="UTF-8"?>
<!DOCTYPE svg PUBLIC "-//W3C//DTD SVG 1.1//EN" "http://www.w3.org/Graphics/SVG/1.1/DTD/svg11.dtd">
<svg xmlns="http://www.w3.org/2000/svg" version="1.1" width="256px" height="256px" style="shape-rendering:geometricPrecision; text-rendering:geometricPrecision; image-rendering:optimizeQuality; fill-rule:evenodd; clip-rule:evenodd" xmlns:xlink="http://www.w3.org/1999/xlink">
<g><path style="opacity:0.012" fill="#1776f1" d="M 99.5,-0.5 C 100.833,-0.5 102.167,-0.5 103.5,-0.5C 103.5,-0.166667 103.5,0.166667 103.5,0.5C 101.901,0.767809 100.568,0.434475 99.5,-0.5 Z"/></g>
<g><path style="opacity:0.998" fill="#1877f2" d="M 110.5,-0.5 C 121.833,-0.5 133.167,-0.5 144.5,-0.5C 146.607,0.468218 148.941,0.801552 151.5,0.5C 155.239,2.10161 159.239,3.10161 163.5,3.5C 166.215,5.07191 169.215,6.07191 172.5,6.5C 173.93,7.53747 175.597,8.20414 177.5,8.5C 178.78,9.93127 180.447,10.5979 182.5,10.5C 182.842,11.3382 183.508,11.6716 184.5,11.5C 184.842,12.3382 185.508,12.6716 186.5,12.5C 188.336,14.588 190.669,15.9213 193.5,16.5C 193.973,17.9063 194.973,18.573 196.5,18.5C 197.29,19.4013 198.29,20.0679 199.5,20.5C 201.86,22.8532 204.527,24.8532 207.5,26.5C 210.474,29.1379 213.474,31.8046 216.5,34.5C 216.5,35.1667 216.833,35.5 217.5,35.5C 217.5,36.1667 217.833,36.5 218.5,36.5C 218.5,37.1667 218.833,37.5 219.5,37.5C 219.5,38.1667 219.833,38.5 220.5,38.5C 222.167,40.8333 224.167,42.8333 226.5,44.5C 228.122,47.4549 230.122,50.1215 232.5,52.5C 232.738,54.4044 233.738,55.7377 235.5,56.5C 235.328,57.4916 235.662,58.1583 236.5,58.5C 237.584,61.0041 238.917,63.3374 240.5,65.5C 240.427,67.0269 241.094,68.0269 242.5,68.5C 242.328,69.4916 242.662,70.1583 243.5,70.5C 244.042,73.9122 245.375,76.9122 247.5,79.5C 247.263,80.791 247.596,81.791 248.5,82.5C 248.928,85.7846 249.928,88.7846 251.5,91.5C 251.898,95.7607 252.898,99.7607 254.5,103.5C 254.198,106.059 254.532,108.393 255.5,110.5C 255.5,121.833 255.5,133.167 255.5,144.5C 254.532,146.607 254.198,148.941 254.5,151.5C 252.898,155.239 251.898,159.239 251.5,163.5C 249.928,166.215 248.928,169.215 248.5,172.5C 247.596,173.209 247.263,174.209 247.5,175.5C 246.662,175.842 246.328,176.508 246.5,177.5C 245.662,177.842 245.328,178.508 245.5,179.5C 244.069,180.78 243.402,182.447 243.5,184.5C 242.662,184.842 242.328,185.508 242.5,186.5C 241.094,186.973 240.427,187.973 240.5,189.5C 239.662,189.842 239.328,190.508 239.5,191.5C 238.662,191.842 238.328,192.508 238.5,193.5C 237.094,193.973 236.427,194.973 236.5,196.5C 235.662,196.842 235.328,197.508 235.5,198.5C 234.833,198.5 234.5,198.833 234.5,199.5C 233.094,199.973 232.427,200.973 232.5,202.5C 231.833,202.5 231.5,202.833 231.5,203.5C 230.662,203.842 230.328,204.508 230.5,205.5C 229.833,205.5 229.5,205.833 229.5,206.5C 228.833,206.5 228.5,206.833 228.5,207.5C 227.094,207.973 226.427,208.973 226.5,210.5C 225.833,210.5 225.5,210.833 225.5,211.5C 224.833,211.5 224.5,211.833 224.5,212.5C 223.833,212.5 223.5,212.833 223.5,213.5C 222.833,213.5 222.5,213.833 222.5,214.5C 221.833,214.5 221.5,214.833 221.5,215.5C 220.833,215.5 220.5,215.833 220.5,216.5C 219.833,216.5 219.5,216.833 219.5,217.5C 218.833,217.5 218.5,217.833 218.5,218.5C 217.833,218.5 217.5,218.833 217.5,219.5C 216.833,219.5 216.5,219.833 216.5,220.5C 215.833,220.5 215.5,220.833 215.5,221.5C 214.833,221.5 214.5,221.833 214.5,222.5C 213.833,222.5 213.5,222.833 213.5,223.5C 212.833,223.5 212.5,223.833 212.5,224.5C 211.833,224.5 211.5,224.833 211.5,225.5C 210.833,225.5 210.5,225.833 210.5,226.5C 208.973,226.427 207.973,227.094 207.5,228.5C 206.833,228.5 206.5,228.833 206.5,229.5C 205.833,229.5 205.5,229.833 205.5,230.5C 204.508,230.328 203.842,230.662 203.5,231.5C 202.833,231.5 202.5,231.833 202.5,232.5C 200.973,232.427 199.973,233.094 199.5,234.5C 198.833,234.5 198.5,234.833 198.5,235.5C 197.508,235.328 196.842,235.662 196.5,236.5C 194.973,236.427 193.973,237.094 193.5,238.5C 192.508,238.328 191.842,238.662 191.5,239.5C 190.508,239.328 189.842,239.662 189.5,240.5C 187.973,240.427 186.973,241.094 186.5,242.5C 185.508,242.328 184.842,242.662 184.5,243.5C 183.508,243.328 182.842,243.662 182.5,244.5C 181.209,244.263 180.209,244.596 179.5,245.5C 178.508,245.328 177.842,245.662 177.5,246.5C 176.508,246.328 175.842,246.662 175.5,247.5C 174.209,247.263 173.209,247.596 172.5,248.5C 169.215,248.928 166.215,249.928 163.5,251.5C 159.239,251.898 155.239,252.898 151.5,254.5C 150.167,254.5 148.833,254.5 147.5,254.5C 147.5,224.5 147.5,194.5 147.5,164.5C 157.5,164.5 167.5,164.5 177.5,164.5C 179.249,152.177 180.915,139.844 182.5,127.5C 170.833,127.5 159.167,127.5 147.5,127.5C 147.334,117.161 147.5,106.828 148,96.5C 150.263,89.9028 154.763,85.7361 161.5,84C 169.159,83.5003 176.826,83.3336 184.5,83.5C 184.5,72.8333 184.5,62.1667 184.5,51.5C 171.219,49.7354 157.885,49.2354 144.5,50C 126.2,54.2994 114.367,65.4661 109,83.5C 107.568,98.108 107.068,112.775 107.5,127.5C 96.5,127.5 85.5,127.5 74.5,127.5C 74.5,139.833 74.5,152.167 74.5,164.5C 85.5,164.5 96.5,164.5 107.5,164.5C 107.5,194.5 107.5,224.5 107.5,254.5C 106.167,254.5 104.833,254.5 103.5,254.5C 99.7607,252.898 95.7607,251.898 91.5,251.5C 88.7846,249.928 85.7846,248.928 82.5,248.5C 81.791,247.596 80.791,247.263 79.5,247.5C 76.9122,245.375 73.9122,244.042 70.5,243.5C 70.1583,242.662 69.4916,242.328 68.5,242.5C 68.0269,241.094 67.0269,240.427 65.5,240.5C 63.3374,238.917 61.0041,237.584 58.5,236.5C 58.1583,235.662 57.4916,235.328 56.5,235.5C 55.7377,233.738 54.4044,232.738 52.5,232.5C 50.1215,230.122 47.4549,228.122 44.5,226.5C 42.8333,224.167 40.8333,222.167 38.5,220.5C 38.5,219.833 38.1667,219.5 37.5,219.5C 37.5,218.833 37.1667,218.5 36.5,218.5C 36.5,217.833 36.1667,217.5 35.5,217.5C 35.5,216.833 35.1667,216.5 34.5,216.5C 31.8046,213.474 29.1379,210.474 26.5,207.5C 25.4884,206.128 24.4884,204.795 23.5,203.5C 22.9744,201.77 21.9744,200.436 20.5,199.5C 20.0679,198.29 19.4013,197.29 18.5,196.5C 18.573,194.973 17.9063,193.973 16.5,193.5C 15.9213,190.669 14.588,188.336 12.5,186.5C 12.6716,185.508 12.3382,184.842 11.5,184.5C 11.6716,183.508 11.3382,182.842 10.5,182.5C 10.7373,181.209 10.404,180.209 9.5,179.5C 8.73623,176.982 7.73623,174.649 6.5,172.5C 6.07191,169.215 5.07191,166.215 3.5,163.5C 2.99152,159.264 1.99152,155.264 0.5,151.5C 0.801552,148.941 0.468218,146.607 -0.5,144.5C -0.5,133.167 -0.5,121.833 -0.5,110.5C 0.468218,108.393 0.801552,106.059 0.5,103.5C 2.46224,96.5988 4.46224,89.5988 6.5,82.5C 7.40397,81.791 7.73731,80.791 7.5,79.5C 9.29268,77.5739 10.2927,75.2406 10.5,72.5C 11.3382,72.1583 11.6716,71.4916 11.5,70.5C 12.3382,70.1583 12.6716,69.4916 12.5,68.5C 14.9998,65.5063 16.9998,62.173 18.5,58.5C 23.423,51.5692 28.7564,44.9025 34.5,38.5C 35.1667,38.5 35.5,38.1667 35.5,37.5C 36.1667,37.5 36.5,37.1667 36.5,36.5C 37.1667,36.5 37.5,36.1667 37.5,35.5C 38.1667,35.5 38.5,35.1667 38.5,34.5C 44.9025,28.7564 51.5692,23.423 58.5,18.5C 62.173,16.9998 65.5063,14.9998 68.5,12.5C 69.4916,12.6716 70.1583,12.3382 70.5,11.5C 74.7868,10.3517 78.7868,8.68501 82.5,6.5C 85.7846,6.07191 88.7846,5.07191 91.5,3.5C 95.7607,3.10161 99.7607,2.10161 103.5,0.5C 106.059,0.801552 108.393,0.468218 110.5,-0.5 Z"/></g>
<g><path style="opacity:0.009" fill="#1777f1" d="M 151.5,0.5 C 151.5,0.166667 151.5,-0.166667 151.5,-0.5C 152.833,-0.5 154.167,-0.5 155.5,-0.5C 154.432,0.434475 153.099,0.767809 151.5,0.5 Z"/></g>
<g><path style="opacity:0.008" fill="#1776f1" d="M 95.5,1.5 C 96.2506,0.426544 97.2506,0.259877 98.5,1C 97.552,1.48278 96.552,1.64945 95.5,1.5 Z"/></g>
<g><path style="opacity:0.012" fill="#1776f2" d="M 156.5,1.5 C 157.251,0.426544 158.251,0.259877 159.5,1C 158.552,1.48278 157.552,1.64945 156.5,1.5 Z"/></g>
<g><path style="opacity:0.008" fill="#1776f1" d="M 91.5,2.5 C 92.2506,1.42654 93.2506,1.25988 94.5,2C 93.552,2.48278 92.552,2.64945 91.5,2.5 Z"/></g>
<g><path style="opacity:0.008" fill="#1776f2" d="M 163.5,2.5 C 162.448,2.64945 161.448,2.48278 160.5,2C 161.749,1.25988 162.749,1.42654 163.5,2.5 Z"/></g>
<g><path style="opacity:0.008" fill="#1777f1" d="M 91.5,2.5 C 91.5,2.83333 91.5,3.16667 91.5,3.5C 87.5,3.16667 87.5,2.83333 91.5,2.5 Z"/></g>
<g><path style="opacity:0.01" fill="#1775f1" d="M 163.5,3.5 C 163.5,3.16667 163.5,2.83333 163.5,2.5C 167.5,2.83333 167.5,3.16667 163.5,3.5 Z"/></g>
<g><path style="opacity:0.012" fill="#1776f1" d="M 85.5,4.5 C 85.8966,3.47498 86.5632,3.30831 87.5,4C 86.9056,4.46434 86.2389,4.63101 85.5,4.5 Z"/></g>
<g><path style="opacity:0.004" fill="#1876f1" d="M 167.5,4.5 C 167.897,3.47498 168.563,3.30831 169.5,4C 168.906,4.46434 168.239,4.63101 167.5,4.5 Z"/></g>
<g><path style="opacity:0.008" fill="#1775f1" d="M 82.5,5.5 C 82.8966,4.47498 83.5632,4.30831 84.5,5C 83.9056,5.46434 83.2389,5.63101 82.5,5.5 Z"/></g>
<g><path style="opacity:0.004" fill="#1776f1" d="M 172.5,5.5 C 171.761,5.63101 171.094,5.46434 170.5,5C 171.437,4.30831 172.103,4.47498 172.5,5.5 Z"/></g>
<g><path style="opacity:0.008" fill="#1776f1" d="M 82.5,5.5 C 82.5,5.83333 82.5,6.16667 82.5,6.5C 79.8333,6.16667 79.8333,5.83333 82.5,5.5 Z"/></g>
<g><path style="opacity:0.01" fill="#1877f1" d="M 172.5,6.5 C 172.5,6.16667 172.5,5.83333 172.5,5.5C 175.167,5.83333 175.167,6.16667 172.5,6.5 Z"/></g>
<g><path style="opacity:0.008" fill="#1776f1" d="M 177.5,8.5 C 177.897,7.47498 178.563,7.30831 179.5,8C 178.906,8.46434 178.239,8.63101 177.5,8.5 Z"/></g>
<g><path style="opacity:0.012" fill="#1876f1" d="M 180.5,8.5 C 181.833,9.16667 181.833,9.16667 180.5,8.5 Z"/></g>
<g><path style="opacity:0.012" fill="#1775f2" d="M 71.5,9.5 C 72.8333,10.1667 72.8333,10.1667 71.5,9.5 Z"/></g>
<g><path style="opacity:0.012" fill="#1875f2" d="M 182.5,9.5 C 183.833,10.1667 183.833,10.1667 182.5,9.5 Z"/></g>
<g><path style="opacity:0.012" fill="#1776f2" d="M 70.5,11.5 C 69.8333,10.1667 69.8333,10.1667 70.5,11.5 Z"/></g>
<g><path style="opacity:0.012" fill="#1775f1" d="M 184.5,10.5 C 185.833,11.1667 185.833,11.1667 184.5,10.5 Z"/></g>
<g><path style="opacity:0.012" fill="#1775f2" d="M 68.5,12.5 C 67.8333,11.1667 67.8333,11.1667 68.5,12.5 Z"/></g>
<g><path style="opacity:0.012" fill="#1776f2" d="M 186.5,11.5 C 187.833,12.1667 187.833,12.1667 186.5,11.5 Z"/></g>
<g><path style="opacity:0.012" fill="#1876f2" d="M 65.5,12.5 C 66.8333,13.1667 66.8333,13.1667 65.5,12.5 Z"/></g>
<g><path style="opacity:0.012" fill="#1776f2" d="M 188.5,12.5 C 189.833,13.1667 189.833,13.1667 188.5,12.5 Z"/></g>
<g><path style="opacity:0.012" fill="#1775f1" d="M 193.5,15.5 C 194.833,16.1667 194.833,16.1667 193.5,15.5 Z"/></g>
<g><path style="opacity:0.008" fill="#1876f2" d="M 58.5,16.5 C 59.8333,17.1667 59.8333,17.1667 58.5,16.5 Z"/></g>
<g><path style="opacity:0.008" fill="#1876f1" d="M 196.5,17.5 C 195.833,16.1667 195.833,16.1667 196.5,17.5 Z"/></g>
<g><path style="opacity:0.012" fill="#1875f1" d="M 58.5,17.5 C 58.5,17.8333 58.5,18.1667 58.5,18.5C 57.8299,18.0187 57.8299,17.6853 58.5,17.5 Z"/></g>
<g><path style="opacity:0.012" fill="#1776f2" d="M 196.5,17.5 C 197.833,18.1667 197.833,18.1667 196.5,17.5 Z"/></g>
<g><path style="opacity:0.012" fill="#1876f1" d="M 199.5,19.5 C 200.833,20.1667 200.833,20.1667 199.5,19.5 Z"/></g>
<g><path style="opacity:0.008" fill="#1775f2" d="M 52.5,20.5 C 53.8333,21.1667 53.8333,21.1667 52.5,20.5 Z"/></g>
<g><path style="opacity:0.008" fill="#1776f2" d="M 201.5,20.5 C 202.833,21.1667 202.833,21.1667 201.5,20.5 Z"/></g>
<g><path style="opacity:0.012" fill="#1775f2" d="M 207.5,25.5 C 208.833,26.1667 208.833,26.1667 207.5,25.5 Z"/></g>
<g><path style="opacity:0.008" fill="#1876f2" d="M 44.5,26.5 C 45.8333,27.1667 45.8333,27.1667 44.5,26.5 Z"/></g>
<g><path style="opacity:0.008" fill="#1876f1" d="M 209.5,26.5 C 210.833,27.1667 210.833,27.1667 209.5,26.5 Z"/></g>
<g><path style="opacity:0.004" fill="#1776f1" d="M 38.5,34.5 C 37.8333,34.5 37.5,34.8333 37.5,35.5C 36.8333,35.5 36.5,35.8333 36.5,36.5C 35.8333,36.5 35.5,36.8333 35.5,37.5C 34.8333,37.5 34.5,37.8333 34.5,38.5C 33.8817,36.3364 34.8817,34.6697 37.5,33.5C 38.1067,33.6236 38.44,33.9569 38.5,34.5 Z"/></g>
<g><path style="opacity:0.004" fill="#1776f1" d="M 216.5,34.5 C 218.664,33.8817 220.33,34.8817 221.5,37.5C 221.376,38.1067 221.043,38.44 220.5,38.5C 219.833,38.5 219.5,38.1667 219.5,37.5C 218.833,37.5 218.5,37.1667 218.5,36.5C 217.833,36.5 217.5,36.1667 217.5,35.5C 216.833,35.5 216.5,35.1667 216.5,34.5 Z"/></g>
<g><path style="opacity:0.012" fill="#1775f1" d="M 227.5,44.5 C 226.833,43.1667 226.833,43.1667 227.5,44.5 Z"/></g>
<g><path style="opacity:0.008" fill="#1776f1" d="M 26.5,44.5 C 27.8333,45.1667 27.8333,45.1667 26.5,44.5 Z"/></g>
<g><path style="opacity:0.008" fill="#1775f1" d="M 227.5,44.5 C 228.833,45.1667 228.833,45.1667 227.5,44.5 Z"/></g>
<g><path style="opacity:0.999" fill="#fdfefe" d="M 147.5,254.5 C 146.209,254.263 145.209,254.596 144.5,255.5C 133.167,255.5 121.833,255.5 110.5,255.5C 109.791,254.596 108.791,254.263 107.5,254.5C 107.5,224.5 107.5,194.5 107.5,164.5C 96.5,164.5 85.5,164.5 74.5,164.5C 74.5,152.167 74.5,139.833 74.5,127.5C 85.5,127.5 96.5,127.5 107.5,127.5C 107.068,112.775 107.568,98.108 109,83.5C 114.367,65.4661 126.2,54.2994 144.5,50C 157.885,49.2354 171.219,49.7354 184.5,51.5C 184.5,62.1667 184.5,72.8333 184.5,83.5C 176.826,83.3336 169.159,83.5003 161.5,84C 154.763,85.7361 150.263,89.9028 148,96.5C 147.5,106.828 147.334,117.161 147.5,127.5C 159.167,127.5 170.833,127.5 182.5,127.5C 180.915,139.844 179.249,152.177 177.5,164.5C 167.5,164.5 157.5,164.5 147.5,164.5C 147.5,194.5 147.5,224.5 147.5,254.5 Z"/></g>
<g><path style="opacity:0.016" fill="#1776f1" d="M 233.5,52.5 C 232.833,51.1667 232.833,51.1667 233.5,52.5 Z"/></g>
<g><path style="opacity:0.008" fill="#1776f2" d="M 20.5,52.5 C 21.8333,53.1667 21.8333,53.1667 20.5,52.5 Z"/></g>
<g><path style="opacity:0.008" fill="#1776f2" d="M 233.5,52.5 C 234.833,53.1667 234.833,53.1667 233.5,52.5 Z"/></g>
<g><path style="opacity:0.012" fill="#1876f1" d="M 235.5,55.5 C 236.833,56.1667 236.833,56.1667 235.5,55.5 Z"/></g>
<g><path style="opacity:0.012" fill="#1776f1" d="M 18.5,58.5 C 17.8333,57.1667 17.8333,57.1667 18.5,58.5 Z"/></g>
<g><path style="opacity:0.012" fill="#1775f1" d="M 237.5,58.5 C 236.833,57.1667 236.833,57.1667 237.5,58.5 Z"/></g>
<g><path style="opacity:0.008" fill="#1876f1" d="M 17.5,58.5 C 16.8333,59.1667 16.8333,59.1667 17.5,58.5 Z"/></g>
<g><path style="opacity:0.008" fill="#1875f2" d="M 237.5,58.5 C 238.833,59.1667 238.833,59.1667 237.5,58.5 Z"/></g>
<g><path style="opacity:0.004" fill="#1776f1" d="M 241.5,65.5 C 241.167,65.5 240.833,65.5 240.5,65.5C 240.833,62.8333 241.167,62.8333 241.5,65.5 Z"/></g>
<g><path style="opacity:0.012" fill="#1875f2" d="M 12.5,65.5 C 13.8333,66.1667 13.8333,66.1667 12.5,65.5 Z"/></g>
<g><path style="opacity:0.012" fill="#1775f2" d="M 241.5,65.5 C 242.833,66.1667 242.833,66.1667 241.5,65.5 Z"/></g>
<g><path style="opacity:0.012" fill="#1775f2" d="M 12.5,68.5 C 11.8333,67.1667 11.8333,67.1667 12.5,68.5 Z"/></g>
<g><path style="opacity:0.012" fill="#1775f2" d="M 242.5,67.5 C 243.833,68.1667 243.833,68.1667 242.5,67.5 Z"/></g>
<g><path style="opacity:0.012" fill="#1776f2" d="M 11.5,70.5 C 10.8333,69.1667 10.8333,69.1667 11.5,70.5 Z"/></g>
<g><path style="opacity:0.012" fill="#1875f1" d="M 243.5,69.5 C 244.833,70.1667 244.833,70.1667 243.5,69.5 Z"/></g>
<g><path style="opacity:0.012" fill="#1876f2" d="M 10.5,72.5 C 9.83333,71.1667 9.83333,71.1667 10.5,72.5 Z"/></g>
<g><path style="opacity:0.012" fill="#1775f2" d="M 244.5,71.5 C 245.833,72.1667 245.833,72.1667 244.5,71.5 Z"/></g>
<g><path style="opacity:0.012" fill="#1876f1" d="M 8.5,73.5 C 9.83333,74.1667 9.83333,74.1667 8.5,73.5 Z"/></g>
<g><path style="opacity:0.012" fill="#1776f1" d="M 7.5,79.5 C 6.47498,79.1034 6.30831,78.4368 7,77.5C 7.46434,78.0944 7.63101,78.7611 7.5,79.5 Z"/></g>
<g><path style="opacity:0.012" fill="#1776f2" d="M 247.5,79.5 C 247.369,78.7611 247.536,78.0944 248,77.5C 248.692,78.4368 248.525,79.1034 247.5,79.5 Z"/></g>
<g><path style="opacity:0.008" fill="#1776f1" d="M 6.5,82.5 C 6.16667,82.5 5.83333,82.5 5.5,82.5C 5.83333,79.8333 6.16667,79.8333 6.5,82.5 Z"/></g>
<g><path style="opacity:0.008" fill="#1776f1" d="M 249.5,82.5 C 249.167,82.5 248.833,82.5 248.5,82.5C 248.833,79.8333 249.167,79.8333 249.5,82.5 Z"/></g>
<g><path style="opacity:0.008" fill="#1776f1" d="M 5.5,82.5 C 5.63101,83.2389 5.46434,83.9056 5,84.5C 4.30831,83.5632 4.47498,82.8966 5.5,82.5 Z"/></g>
<g><path style="opacity:0.008" fill="#1776f1" d="M 249.5,82.5 C 250.525,82.8966 250.692,83.5632 250,84.5C 249.536,83.9056 249.369,83.2389 249.5,82.5 Z"/></g>
<g><path style="opacity:0.008" fill="#1877f1" d="M 250.5,85.5 C 251.525,85.8966 251.692,86.5632 251,87.5C 250.536,86.9056 250.369,86.2389 250.5,85.5 Z"/></g>
<g><path style="opacity:0.012" fill="#1776f1" d="M 3.5,85.5 C 4.52502,85.8966 4.69169,86.5632 4,87.5C 3.53566,86.9056 3.36899,86.2389 3.5,85.5 Z"/></g>
<g><path style="opacity:0.01" fill="#1876f1" d="M 252.5,91.5 C 252.167,91.5 251.833,91.5 251.5,91.5C 251.833,87.5 252.167,87.5 252.5,91.5 Z"/></g>
<g><path style="opacity:0.009" fill="#1777f1" d="M 252.5,91.5 C 253.573,92.2506 253.74,93.2506 253,94.5C 252.517,93.552 252.351,92.552 252.5,91.5 Z"/></g>
<g><path style="opacity:0.008" fill="#1776f1" d="M 253.5,95.5 C 254.573,96.2506 254.74,97.2506 254,98.5C 253.517,97.552 253.351,96.552 253.5,95.5 Z"/></g>
<g><path style="opacity:0.012" fill="#1776f2" d="M 0.5,95.5 C 1.57346,96.2506 1.74012,97.2506 1,98.5C 0.517215,97.552 0.350549,96.552 0.5,95.5 Z"/></g>
<g><path style="opacity:0.012" fill="#1776f1" d="M -0.5,99.5 C 0.434475,100.568 0.767809,101.901 0.5,103.5C 0.166667,103.5 -0.166667,103.5 -0.5,103.5C -0.5,102.167 -0.5,100.833 -0.5,99.5 Z"/></g>
<g><path style="opacity:0.012" fill="#1776f1" d="M 255.5,99.5 C 255.5,100.833 255.5,102.167 255.5,103.5C 255.167,103.5 254.833,103.5 254.5,103.5C 254.232,101.901 254.566,100.568 255.5,99.5 Z"/></g>
<g><path style="opacity:0.012" fill="#1776f2" d="M -0.5,151.5 C -0.166667,151.5 0.166667,151.5 0.5,151.5C 0.767809,153.099 0.434475,154.432 -0.5,155.5C -0.5,154.167 -0.5,152.833 -0.5,151.5 Z"/></g>
<g><path style="opacity:0.012" fill="#1776f1" d="M 254.5,151.5 C 254.833,151.5 255.167,151.5 255.5,151.5C 255.5,152.833 255.5,154.167 255.5,155.5C 254.566,154.432 254.232,153.099 254.5,151.5 Z"/></g>
<g><path style="opacity:0.012" fill="#1776f1" d="M 253.5,156.5 C 254.573,157.251 254.74,158.251 254,159.5C 253.517,158.552 253.351,157.552 253.5,156.5 Z"/></g>
<g><path style="opacity:0.008" fill="#1776f2" d="M 0.5,156.5 C 1.57346,157.251 1.74012,158.251 1,159.5C 0.517215,158.552 0.350549,157.552 0.5,156.5 Z"/></g>
<g><path style="opacity:0.012" fill="#1776f1" d="M 252.5,163.5 C 252.351,162.448 252.517,161.448 253,160.5C 253.74,161.749 253.573,162.749 252.5,163.5 Z"/></g>
<g><path style="opacity:0.01" fill="#1877f2" d="M 3.5,163.5 C 3.64945,164.552 3.48278,165.552 3,166.5C 2.25988,165.251 2.42654,164.251 3.5,163.5 Z"/></g>
<g><path style="opacity:0.01" fill="#1776f1" d="M 251.5,163.5 C 251.833,163.5 252.167,163.5 252.5,163.5C 252.167,167.5 251.833,167.5 251.5,163.5 Z"/></g>
<g><path style="opacity:0.008" fill="#1876f1" d="M 3.5,167.5 C 4.52502,167.897 4.69169,168.563 4,169.5C 3.53566,168.906 3.36899,168.239 3.5,167.5 Z"/></g>
<g><path style="opacity:0.008" fill="#1777f1" d="M 250.5,167.5 C 251.525,167.897 251.692,168.563 251,169.5C 250.536,168.906 250.369,168.239 250.5,167.5 Z"/></g>
<g><path style="opacity:0.008" fill="#1776f1" d="M 5.5,172.5 C 4.47498,172.103 4.30831,171.437 5,170.5C 5.46434,171.094 5.63101,171.761 5.5,172.5 Z"/></g>
<g><path style="opacity:0.008" fill="#1877f1" d="M 249.5,172.5 C 249.369,171.761 249.536,171.094 250,170.5C 250.692,171.437 250.525,172.103 249.5,172.5 Z"/></g>
<g><path style="opacity:0.012" fill="#1776f2" d="M 5.5,172.5 C 5.83333,172.5 6.16667,172.5 6.5,172.5C 6.16667,175.167 5.83333,175.167 5.5,172.5 Z"/></g>
<g><path style="opacity:0.012" fill="#1776f1" d="M 248.5,172.5 C 248.833,172.5 249.167,172.5 249.5,172.5C 249.167,175.167 248.833,175.167 248.5,172.5 Z"/></g>
<g><path style="opacity:0.008" fill="#1775f2" d="M 247.5,175.5 C 248.833,176.167 248.833,176.833 247.5,177.5C 247.5,176.833 247.5,176.167 247.5,175.5 Z"/></g>
<g><path style="opacity:0.008" fill="#1776f1" d="M 246.5,177.5 C 246.833,177.5 247.167,177.5 247.5,177.5C 247.672,178.492 247.338,179.158 246.5,179.5C 246.5,178.833 246.5,178.167 246.5,177.5 Z"/></g>
<g><path style="opacity:0.008" fill="#1777f1" d="M 245.5,179.5 C 245.833,179.5 246.167,179.5 246.5,179.5C 246.167,182.167 245.833,182.167 245.5,179.5 Z"/></g>
<g><path style="opacity:0.012" fill="#1776f2" d="M 9.5,179.5 C 9.63101,180.239 9.46434,180.906 9,181.5C 8.30831,180.563 8.47498,179.897 9.5,179.5 Z"/></g>
<g><path style="opacity:0.012" fill="#1876f2" d="M 10.5,182.5 C 9.83333,183.167 9.83333,183.167 10.5,182.5 Z"/></g>
<g><path style="opacity:0.012" fill="#1775f2" d="M 244.5,182.5 C 245.833,183.167 245.833,183.167 244.5,182.5 Z"/></g>
<g><path style="opacity:0.012" fill="#1776f2" d="M 11.5,184.5 C 10.8333,185.167 10.8333,185.167 11.5,184.5 Z"/></g>
<g><path style="opacity:0.012" fill="#1775f1" d="M 243.5,184.5 C 244.833,185.167 244.833,185.167 243.5,184.5 Z"/></g>
<g><path style="opacity:0.012" fill="#1876f1" d="M 12.5,186.5 C 11.8333,187.167 11.8333,187.167 12.5,186.5 Z"/></g>
<g><path style="opacity:0.012" fill="#1775f1" d="M 242.5,186.5 C 243.833,187.167 243.833,187.167 242.5,186.5 Z"/></g>
<g><path style="opacity:0.012" fill="#1776f1" d="M 12.5,188.5 C 13.8333,189.167 13.8333,189.167 12.5,188.5 Z"/></g>
<g><path style="opacity:0.012" fill="#1775f2" d="M 241.5,188.5 C 242.833,189.167 242.833,189.167 241.5,188.5 Z"/></g>
<g><path style="opacity:0.006" fill="#1876f2" d="M 240.5,189.5 C 240.833,189.5 241.167,189.5 241.5,189.5C 241.672,190.492 241.338,191.158 240.5,191.5C 240.5,190.833 240.5,190.167 240.5,189.5 Z"/></g>
<g><path style="opacity:0.008" fill="#1777f1" d="M 239.5,191.5 C 239.833,191.5 240.167,191.5 240.5,191.5C 240.672,192.492 240.338,193.158 239.5,193.5C 239.5,192.833 239.5,192.167 239.5,191.5 Z"/></g>
<g><path style="opacity:0.012" fill="#1876f1" d="M 16.5,193.5 C 15.8333,194.167 15.8333,194.167 16.5,193.5 Z"/></g>
<g><path style="opacity:0.012" fill="#1876f2" d="M 238.5,193.5 C 238.833,193.5 239.167,193.5 239.5,193.5C 239.315,194.17 238.981,194.17 238.5,193.5 Z"/></g>
<g><path style="opacity:0.008" fill="#1775f2" d="M 17.5,196.5 C 16.8333,195.167 16.8333,195.167 17.5,196.5 Z"/></g>
<g><path style="opacity:0.008" fill="#1875f1" d="M 237.5,195.5 C 238.833,196.167 238.833,196.167 237.5,195.5 Z"/></g>
<g><path style="opacity:0.012" fill="#1876f2" d="M 17.5,196.5 C 17.8333,196.5 18.1667,196.5 18.5,196.5C 18.3147,197.17 17.9813,197.17 17.5,196.5 Z"/></g>
<g><path style="opacity:0.012" fill="#1875f2" d="M 236.5,196.5 C 236.833,196.5 237.167,196.5 237.5,196.5C 237.315,197.17 236.981,197.17 236.5,196.5 Z"/></g>
<g><path style="opacity:0.012" fill="#1776f2" d="M 235.5,198.5 C 236.833,199.167 236.833,199.167 235.5,198.5 Z"/></g>
<g><path style="opacity:0.012" fill="#1875f1" d="M 20.5,199.5 C 19.8333,200.167 19.8333,200.167 20.5,199.5 Z"/></g>
<g><path style="opacity:0.012" fill="#1776f1" d="M 234.5,199.5 C 234.833,199.5 235.167,199.5 235.5,199.5C 235.315,200.17 234.981,200.17 234.5,199.5 Z"/></g>
<g><path style="opacity:0.008" fill="#1775f2" d="M 20.5,201.5 C 21.8333,202.167 21.8333,202.167 20.5,201.5 Z"/></g>
<g><path style="opacity:0.008" fill="#1775f2" d="M 233.5,201.5 C 234.833,202.167 234.833,202.167 233.5,201.5 Z"/></g>
<g><path style="opacity:0.016" fill="#1775f1" d="M 232.5,202.5 C 232.833,202.5 233.167,202.5 233.5,202.5C 233.315,203.17 232.981,203.17 232.5,202.5 Z"/></g>
<g><path style="opacity:0.004" fill="#1876f1" d="M 23.5,203.5 C 23.631,204.239 23.4643,204.906 23,205.5C 22.3083,204.563 22.475,203.897 23.5,203.5 Z"/></g>
<g><path style="opacity:0.004" fill="#1876f1" d="M 231.5,203.5 C 231.833,203.5 232.167,203.5 232.5,203.5C 232.672,204.492 232.338,205.158 231.5,205.5C 231.5,204.833 231.5,204.167 231.5,203.5 Z"/></g>
<g><path style="opacity:0.012" fill="#1775f1" d="M 230.5,205.5 C 230.833,205.5 231.167,205.5 231.5,205.5C 231.315,206.17 230.981,206.17 230.5,205.5 Z"/></g>
<g><path style="opacity:0.016" fill="#1876f1" d="M 229.5,206.5 C 229.833,206.5 230.167,206.5 230.5,206.5C 230.315,207.17 229.981,207.17 229.5,206.5 Z"/></g>
<g><path style="opacity:0.012" fill="#1876f2" d="M 26.5,207.5 C 25.8333,208.167 25.8333,208.167 26.5,207.5 Z"/></g>
<g><path style="opacity:0.012" fill="#1875f2" d="M 228.5,207.5 C 228.833,207.5 229.167,207.5 229.5,207.5C 229.315,208.17 228.981,208.17 228.5,207.5 Z"/></g>
<g><path style="opacity:0.008" fill="#1876f1" d="M 26.5,209.5 C 27.8333,210.167 27.8333,210.167 26.5,209.5 Z"/></g>
<g><path style="opacity:0.008" fill="#1776f1" d="M 227.5,209.5 C 228.833,210.167 228.833,210.167 227.5,209.5 Z"/></g>
<g><path style="opacity:0.012" fill="#1775f1" d="M 226.5,210.5 C 226.833,210.5 227.167,210.5 227.5,210.5C 227.315,211.17 226.981,211.17 226.5,210.5 Z"/></g>
<g><path style="opacity:0.012" fill="#1775f2" d="M 225.5,211.5 C 225.833,211.5 226.167,211.5 226.5,211.5C 226.315,212.17 225.981,212.17 225.5,211.5 Z"/></g>
<g><path style="opacity:0.016" fill="#1775f1" d="M 224.5,212.5 C 224.833,212.5 225.167,212.5 225.5,212.5C 225.315,213.17 224.981,213.17 224.5,212.5 Z"/></g>
<g><path style="opacity:0.016" fill="#1875f1" d="M 223.5,213.5 C 223.833,213.5 224.167,213.5 224.5,213.5C 224.315,214.17 223.981,214.17 223.5,213.5 Z"/></g>
<g><path style="opacity:0.012" fill="#1875f1" d="M 222.5,214.5 C 222.833,214.5 223.167,214.5 223.5,214.5C 223.315,215.17 222.981,215.17 222.5,214.5 Z"/></g>
<g><path style="opacity:0.008" fill="#1775f1" d="M 221.5,215.5 C 221.833,215.5 222.167,215.5 222.5,215.5C 222.315,216.17 221.981,216.17 221.5,215.5 Z"/></g>
<g><path style="opacity:0.004" fill="#1776f1" d="M 34.5,216.5 C 35.1667,216.5 35.5,216.833 35.5,217.5C 36.1667,217.5 36.5,217.833 36.5,218.5C 37.1667,218.5 37.5,218.833 37.5,219.5C 38.1667,219.5 38.5,219.833 38.5,220.5C 36.3364,221.118 34.6697,220.118 33.5,217.5C 33.6236,216.893 33.9569,216.56 34.5,216.5 Z"/></g>
<g><path style="opacity:0.004" fill="#1776f1" d="M 220.5,216.5 C 220.833,216.5 221.167,216.5 221.5,216.5C 220.833,219.167 219.167,220.833 216.5,221.5C 216.5,221.167 216.5,220.833 216.5,220.5C 217.167,220.5 217.5,220.167 217.5,219.5C 218.167,219.5 218.5,219.167 218.5,218.5C 219.167,218.5 219.5,218.167 219.5,217.5C 220.167,217.5 220.5,217.167 220.5,216.5 Z"/></g>
<g><path style="opacity:0.008" fill="#1876f1" d="M 215.5,221.5 C 215.833,221.5 216.167,221.5 216.5,221.5C 216.315,222.17 215.981,222.17 215.5,221.5 Z"/></g>
<g><path style="opacity:0.012" fill="#1776f1" d="M 214.5,222.5 C 214.833,222.5 215.167,222.5 215.5,222.5C 215.315,223.17 214.981,223.17 214.5,222.5 Z"/></g>
<g><path style="opacity:0.016" fill="#1775f1" d="M 213.5,223.5 C 213.833,223.5 214.167,223.5 214.5,223.5C 214.315,224.17 213.981,224.17 213.5,223.5 Z"/></g>
<g><path style="opacity:0.016" fill="#1876f2" d="M 212.5,224.5 C 212.833,224.5 213.167,224.5 213.5,224.5C 213.315,225.17 212.981,225.17 212.5,224.5 Z"/></g>
<g><path style="opacity:0.012" fill="#1876f2" d="M 211.5,225.5 C 211.833,225.5 212.167,225.5 212.5,225.5C 212.315,226.17 211.981,226.17 211.5,225.5 Z"/></g>
<g><path style="opacity:0.012" fill="#1776f1" d="M 44.5,226.5 C 44.5,226.833 44.5,227.167 44.5,227.5C 43.8299,227.019 43.8299,226.685 44.5,226.5 Z"/></g>
<g><path style="opacity:0.012" fill="#1876f2" d="M 210.5,226.5 C 210.833,226.5 211.167,226.5 211.5,226.5C 211.315,227.17 210.981,227.17 210.5,226.5 Z"/></g>
<g><path style="opacity:0.008" fill="#1776f1" d="M 44.5,227.5 C 45.8333,228.167 45.8333,228.167 44.5,227.5 Z"/></g>
<g><path style="opacity:0.008" fill="#1876f1" d="M 210.5,227.5 C 209.833,228.167 209.833,228.167 210.5,227.5 Z"/></g>
<g><path style="opacity:0.012" fill="#1875f2" d="M 207.5,228.5 C 208.833,229.167 208.833,229.167 207.5,228.5 Z"/></g>
<g><path style="opacity:0.016" fill="#1776f1" d="M 206.5,229.5 C 206.833,229.5 207.167,229.5 207.5,229.5C 207.315,230.17 206.981,230.17 206.5,229.5 Z"/></g>
<g><path style="opacity:0.012" fill="#1776f2" d="M 205.5,230.5 C 205.833,230.5 206.167,230.5 206.5,230.5C 206.315,231.17 205.981,231.17 205.5,230.5 Z"/></g>
<g><path style="opacity:0.004" fill="#1776f1" d="M 203.5,232.5 C 203.5,232.167 203.5,231.833 203.5,231.5C 204.167,231.5 204.833,231.5 205.5,231.5C 205.158,232.338 204.492,232.672 203.5,232.5 Z"/></g>
<g><path style="opacity:0.016" fill="#1875f1" d="M 52.5,232.5 C 52.5,232.833 52.5,233.167 52.5,233.5C 51.8299,233.019 51.8299,232.685 52.5,232.5 Z"/></g>
<g><path style="opacity:0.016" fill="#1775f1" d="M 202.5,232.5 C 202.833,232.5 203.167,232.5 203.5,232.5C 203.315,233.17 202.981,233.17 202.5,232.5 Z"/></g>
<g><path style="opacity:0.008" fill="#1776f2" d="M 52.5,233.5 C 53.8333,234.167 53.8333,234.167 52.5,233.5 Z"/></g>
<g><path style="opacity:0.008" fill="#1775f2" d="M 202.5,233.5 C 201.833,234.167 201.833,234.167 202.5,233.5 Z"/></g>
<g><path style="opacity:0.012" fill="#1775f1" d="M 199.5,234.5 C 200.833,235.167 200.833,235.167 199.5,234.5 Z"/></g>
<g><path style="opacity:0.012" fill="#1776f2" d="M 56.5,235.5 C 55.8333,236.167 55.8333,236.167 56.5,235.5 Z"/></g>
<g><path style="opacity:0.012" fill="#1776f2" d="M 198.5,235.5 C 198.833,235.5 199.167,235.5 199.5,235.5C 199.315,236.17 198.981,236.17 198.5,235.5 Z"/></g>
<g><path style="opacity:0.012" fill="#1876f2" d="M 58.5,236.5 C 58.5,236.833 58.5,237.167 58.5,237.5C 57.8299,237.019 57.8299,236.685 58.5,236.5 Z"/></g>
<g><path style="opacity:0.012" fill="#1776f1" d="M 196.5,236.5 C 197.833,237.167 197.833,237.167 196.5,236.5 Z"/></g>
<g><path style="opacity:0.008" fill="#1876f2" d="M 58.5,237.5 C 59.8333,238.167 59.8333,238.167 58.5,237.5 Z"/></g>
<g><path style="opacity:0.008" fill="#1775f2" d="M 196.5,237.5 C 195.833,238.167 195.833,238.167 196.5,237.5 Z"/></g>
<g><path style="opacity:0.012" fill="#1876f2" d="M 193.5,238.5 C 194.833,239.167 194.833,239.167 193.5,238.5 Z"/></g>
<g><path style="opacity:0.008" fill="#1876f1" d="M 191.5,240.5 C 191.5,240.167 191.5,239.833 191.5,239.5C 192.167,239.5 192.833,239.5 193.5,239.5C 193.158,240.338 192.492,240.672 191.5,240.5 Z"/></g>
<g><path style="opacity:0.004" fill="#1776f1" d="M 65.5,240.5 C 65.5,240.833 65.5,241.167 65.5,241.5C 62.8333,241.167 62.8333,240.833 65.5,240.5 Z"/></g>
<g><path style="opacity:0.008" fill="#1776f1" d="M 189.5,241.5 C 189.5,241.167 189.5,240.833 189.5,240.5C 190.167,240.5 190.833,240.5 191.5,240.5C 191.158,241.338 190.492,241.672 189.5,241.5 Z"/></g>
<g><path style="opacity:0.012" fill="#1775f2" d="M 65.5,241.5 C 66.8333,242.167 66.8333,242.167 65.5,241.5 Z"/></g>
<g><path style="opacity:0.012" fill="#1775f1" d="M 189.5,241.5 C 188.833,242.167 188.833,242.167 189.5,241.5 Z"/></g>
<g><path style="opacity:0.012" fill="#1775f1" d="M 68.5,242.5 C 67.8333,243.167 67.8333,243.167 68.5,242.5 Z"/></g>
<g><path style="opacity:0.012" fill="#1776f2" d="M 186.5,242.5 C 187.833,243.167 187.833,243.167 186.5,242.5 Z"/></g>
<g><path style="opacity:0.012" fill="#1776f2" d="M 70.5,243.5 C 69.8333,244.167 69.8333,244.167 70.5,243.5 Z"/></g>
<g><path style="opacity:0.012" fill="#1875f1" d="M 184.5,243.5 C 185.833,244.167 185.833,244.167 184.5,243.5 Z"/></g>
<g><path style="opacity:0.012" fill="#1876f1" d="M 71.5,244.5 C 72.8333,245.167 72.8333,245.167 71.5,244.5 Z"/></g>
<g><path style="opacity:0.012" fill="#1775f2" d="M 182.5,244.5 C 183.833,245.167 183.833,245.167 182.5,244.5 Z"/></g>
<g><path style="opacity:0.012" fill="#1777f1" d="M 179.5,246.5 C 179.5,246.167 179.5,245.833 179.5,245.5C 182.167,245.833 182.167,246.167 179.5,246.5 Z"/></g>
<g><path style="opacity:0.008" fill="#1877f1" d="M 177.5,247.5 C 177.5,247.167 177.5,246.833 177.5,246.5C 178.167,246.5 178.833,246.5 179.5,246.5C 179.158,247.338 178.492,247.672 177.5,247.5 Z"/></g>
<g><path style="opacity:0.012" fill="#1776f2" d="M 79.5,247.5 C 79.1034,248.525 78.4368,248.692 77.5,248C 78.0944,247.536 78.7611,247.369 79.5,247.5 Z"/></g>
<g><path style="opacity:0.004" fill="#1776f1" d="M 175.5,247.5 C 176.167,247.5 176.833,247.5 177.5,247.5C 176.833,248.833 176.167,248.833 175.5,247.5 Z"/></g>
<g><path style="opacity:0.008" fill="#1776f1" d="M 82.5,248.5 C 82.5,248.833 82.5,249.167 82.5,249.5C 79.8333,249.167 79.8333,248.833 82.5,248.5 Z"/></g>
<g><path style="opacity:0.012" fill="#1776f2" d="M 172.5,249.5 C 172.5,249.167 172.5,248.833 172.5,248.5C 175.167,248.833 175.167,249.167 172.5,249.5 Z"/></g>
<g><path style="opacity:0.012" fill="#1776f1" d="M 82.5,249.5 C 83.2389,249.369 83.9056,249.536 84.5,250C 83.5632,250.692 82.8966,250.525 82.5,249.5 Z"/></g>
<g><path style="opacity:0.004" fill="#1776f2" d="M 172.5,249.5 C 172.103,250.525 171.437,250.692 170.5,250C 171.094,249.536 171.761,249.369 172.5,249.5 Z"/></g>
<g><path style="opacity:0.008" fill="#1776f1" d="M 85.5,251.5 C 85.8966,250.475 86.5632,250.308 87.5,251C 86.9056,251.464 86.2389,251.631 85.5,251.5 Z"/></g>
<g><path style="opacity:0.008" fill="#1777f1" d="M 167.5,251.5 C 167.897,250.475 168.563,250.308 169.5,251C 168.906,251.464 168.239,251.631 167.5,251.5 Z"/></g>
<g><path style="opacity:0.012" fill="#1776f0" d="M 91.5,251.5 C 91.5,251.833 91.5,252.167 91.5,252.5C 87.5,252.167 87.5,251.833 91.5,251.5 Z"/></g>
<g><path style="opacity:0.008" fill="#1777f0" d="M 163.5,252.5 C 163.5,252.167 163.5,251.833 163.5,251.5C 167.5,251.833 167.5,252.167 163.5,252.5 Z"/></g>
<g><path style="opacity:0.009" fill="#1877f1" d="M 91.5,252.5 C 92.552,252.351 93.552,252.517 94.5,253C 93.2506,253.74 92.2506,253.573 91.5,252.5 Z"/></g>
<g><path style="opacity:0.009" fill="#1776f1" d="M 163.5,252.5 C 162.749,253.573 161.749,253.74 160.5,253C 161.448,252.517 162.448,252.351 163.5,252.5 Z"/></g>
<g><path style="opacity:0.008" fill="#1776f1" d="M 95.5,254.5 C 96.2506,253.427 97.2506,253.26 98.5,254C 97.552,254.483 96.552,254.649 95.5,254.5 Z"/></g>
<g><path style="opacity:0.012" fill="#1876f1" d="M 156.5,254.5 C 157.251,253.427 158.251,253.26 159.5,254C 158.552,254.483 157.552,254.649 156.5,254.5 Z"/></g>
<g><path style="opacity:0.009" fill="#1776f1" d="M 99.5,255.5 C 100.568,254.566 101.901,254.232 103.5,254.5C 103.5,254.833 103.5,255.167 103.5,255.5C 102.167,255.5 100.833,255.5 99.5,255.5 Z"/></g>
<g><path style="opacity:0.006" fill="#1876f1" d="M 151.5,255.5 C 151.5,255.167 151.5,254.833 151.5,254.5C 153.099,254.232 154.432,254.566 155.5,255.5C 154.167,255.5 152.833,255.5 151.5,255.5 Z"/></g>
</svg>
