<?xml version="1.0" encoding="UTF-8"?>
<!DOCTYPE svg PUBLIC "-//W3C//DTD SVG 1.1//EN" "http://www.w3.org/Graphics/SVG/1.1/DTD/svg11.dtd">
<svg xmlns="http://www.w3.org/2000/svg" version="1.1" width="256px" height="256px" style="shape-rendering:geometricPrecision; text-rendering:geometricPrecision; image-rendering:optimizeQuality; fill-rule:evenodd; clip-rule:evenodd" xmlns:xlink="http://www.w3.org/1999/xlink">
<g><path style="opacity:0.008" fill="#9a37a0" d="M 46.5,-0.5 C 47.5,-0.5 48.5,-0.5 49.5,-0.5C 48.5,0.833333 47.5,0.833333 46.5,-0.5 Z"/></g>
<g><path style="opacity:0.984" fill="#9938a1" d="M 58.5,-0.5 C 59.5,-0.5 60.5,-0.5 61.5,-0.5C 64.0232,0.384409 66.6898,1.21774 69.5,2C 66.6366,3.39891 63.6366,4.39891 60.5,5C 40.844,14.2682 22.6773,25.7682 6,39.5C 6.44623,36.5617 6.94623,33.5617 7.5,30.5C 8.10978,29.609 8.44312,28.609 8.5,27.5C 14.5424,19.1237 21.8757,12.1237 30.5,6.5C 32.5529,6.59794 34.2196,5.93127 35.5,4.5C 39.0477,3.86993 42.3811,2.86993 45.5,1.5C 50.0275,1.22956 54.3609,0.562891 58.5,-0.5 Z"/></g>
<g><path style="opacity:0.998" fill="#a53798" d="M 86.5,-0.5 C 100.167,-0.5 113.833,-0.5 127.5,-0.5C 113.899,3.19533 100.232,7.02866 86.5,11C 76.345,15.4286 66.345,19.9286 56.5,24.5C 47.5865,29.4537 38.2531,33.6204 28.5,37C 19.4295,42.0821 10.9295,47.9155 3,54.5C 2.66667,55.5 2.33333,56.5 2,57.5C 1.50335,55.1902 1.33669,52.8568 1.5,50.5C 1.5,48.8333 1.5,47.1667 1.5,45.5C 1.83333,45.5 2.16667,45.5 2.5,45.5C 2.5,47.1667 2.5,48.8333 2.5,50.5C 3.55198,50.6495 4.55198,50.4828 5.5,50C 11.5404,44.2908 17.8737,38.9575 24.5,34C 32.6169,29.388 40.6169,24.5547 48.5,19.5C 57.7426,15.2951 66.9092,10.9617 76,6.5C 76.414,6.95735 76.914,7.29069 77.5,7.5C 84.1196,4.0151 91.1196,1.84843 98.5,1C 94.3123,0.823821 90.3123,0.323821 86.5,-0.5 Z"/></g>
<g><path style="opacity:0.998" fill="#ac3496" d="M 127.5,-0.5 C 150.5,-0.5 173.5,-0.5 196.5,-0.5C 200.639,0.562891 204.972,1.22956 209.5,1.5C 211.599,2.61185 213.933,3.27852 216.5,3.5C 217.209,4.40397 218.209,4.73731 219.5,4.5C 220.78,5.93127 222.447,6.59794 224.5,6.5C 226.619,8.39976 228.953,10.0664 231.5,11.5C 231.631,12.2389 231.464,12.9056 231,13.5C 220.897,6.84689 209.73,3.68022 197.5,4C 152.614,1.01189 109.614,8.51189 68.5,26.5C 65.0605,25.4599 61.0605,24.7932 56.5,24.5C 66.345,19.9286 76.345,15.4286 86.5,11C 100.232,7.02866 113.899,3.19533 127.5,-0.5 Z"/></g>
<g><path style="opacity:0.008" fill="#ae3494" d="M 205.5,-0.5 C 206.5,-0.5 207.5,-0.5 208.5,-0.5C 207.5,0.833333 206.5,0.833333 205.5,-0.5 Z"/></g>
<g><path style="opacity:0.016" fill="#9238a5" d="M 45.5,1.5 C 44.448,1.64945 43.448,1.48278 42.5,1C 43.7494,0.259877 44.7494,0.426544 45.5,1.5 Z"/></g>
<g><path style="opacity:0.016" fill="#ac3495" d="M 209.5,1.5 C 210.251,0.426544 211.251,0.259877 212.5,1C 211.552,1.48278 210.552,1.64945 209.5,1.5 Z"/></g>
<g><path style="opacity:0.999" fill="#9f389c" d="M 61.5,-0.5 C 69.8333,-0.5 78.1667,-0.5 86.5,-0.5C 90.3123,0.323821 94.3123,0.823821 98.5,1C 91.1196,1.84843 84.1196,4.0151 77.5,7.5C 76.914,7.29069 76.414,6.95735 76,6.5C 66.9092,10.9617 57.7426,15.2951 48.5,19.5C 40.6169,24.5547 32.6169,29.388 24.5,34C 17.8737,38.9575 11.5404,44.2908 5.5,50C 4.55198,50.4828 3.55198,50.6495 2.5,50.5C 2.5,48.8333 2.5,47.1667 2.5,45.5C 2.5,44.1667 2.5,42.8333 2.5,41.5C 3.73838,39.7857 4.40505,37.7857 4.5,35.5C 5.93127,34.2196 6.59794,32.5529 6.5,30.5C 6.83333,30.5 7.16667,30.5 7.5,30.5C 6.94623,33.5617 6.44623,36.5617 6,39.5C 22.6773,25.7682 40.844,14.2682 60.5,5C 63.6366,4.39891 66.6366,3.39891 69.5,2C 66.6898,1.21774 64.0232,0.384409 61.5,-0.5 Z"/></g>
<g><path style="opacity:0.012" fill="#ac3395" d="M 216.5,3.5 C 216.897,2.47498 217.563,2.30831 218.5,3C 217.906,3.46434 217.239,3.63101 216.5,3.5 Z"/></g>
<g><path style="opacity:0.008" fill="#9238a5" d="M 35.5,4.5 C 34.7611,4.63101 34.0944,4.46434 33.5,4C 34.4368,3.30831 35.1034,3.47498 35.5,4.5 Z"/></g>
<g><path style="opacity:0.999" fill="#b23392" d="M 231.5,11.5 C 233.167,12.5 234.5,13.8333 235.5,15.5C 235.062,15.4346 234.728,15.6012 234.5,16C 236.167,17.6667 237.833,19.3333 239.5,21C 239.167,21.1667 238.833,21.3333 238.5,21.5C 194.119,9.25441 149.953,9.92108 106,23.5C 104.293,22.8617 102.46,22.8617 100.5,23.5C 90.9554,24.6781 81.622,26.3448 72.5,28.5C 70.5168,28.8432 69.1834,28.1765 68.5,26.5C 109.614,8.51189 152.614,1.01189 197.5,4C 209.73,3.68022 220.897,6.84689 231,13.5C 231.464,12.9056 231.631,12.2389 231.5,11.5 Z"/></g>
<g><path style="opacity:0.008" fill="#af3395" d="M 219.5,4.5 C 219.897,3.47498 220.563,3.30831 221.5,4C 220.906,4.46434 220.239,4.63101 219.5,4.5 Z"/></g>
<g><path style="opacity:0.012" fill="#9738a1" d="M 31.5,4.5 C 32.8333,5.16667 32.8333,5.16667 31.5,4.5 Z"/></g>
<g><path style="opacity:0.012" fill="#af3393" d="M 222.5,4.5 C 223.833,5.16667 223.833,5.16667 222.5,4.5 Z"/></g>
<g><path style="opacity:0.012" fill="#9638a3" d="M 30.5,6.5 C 29.8333,5.16667 29.8333,5.16667 30.5,6.5 Z"/></g>
<g><path style="opacity:0.012" fill="#af3395" d="M 224.5,5.5 C 225.833,6.16667 225.833,6.16667 224.5,5.5 Z"/></g>
<g><path style="opacity:0.012" fill="#b03393" d="M 226.5,6.5 C 227.833,7.16667 227.833,7.16667 226.5,6.5 Z"/></g>
<g><path style="opacity:0.004" fill="#a1389b" d="M 17.5,13.5 C 18.8333,14.1667 18.8333,14.1667 17.5,13.5 Z"/></g>
<g><path style="opacity:0.004" fill="#9e389c" d="M 17.5,14.5 C 16.8333,15.1667 16.8333,15.1667 17.5,14.5 Z"/></g>
<g><path style="opacity:0.004" fill="#9e399c" d="M 16.5,15.5 C 15.8333,16.1667 15.8333,16.1667 16.5,15.5 Z"/></g>
<g><path style="opacity:0.004" fill="#9f399c" d="M 15.5,16.5 C 14.8333,17.1667 14.8333,17.1667 15.5,16.5 Z"/></g>
<g><path style="opacity:1" fill="#b8328e" d="M 235.5,15.5 C 239.904,18.9006 243.571,22.9006 246.5,27.5C 246.557,28.609 246.89,29.609 247.5,30.5C 247.649,31.552 247.483,32.552 247,33.5C 242.56,30.9048 237.727,29.0715 232.5,28C 222.291,25.8254 212.124,23.6587 202,21.5C 198.238,22.5629 194.572,22.2295 191,20.5C 181.567,20.578 172.067,20.578 162.5,20.5C 161.252,21.0402 160.085,21.7069 159,22.5C 157.249,21.8263 155.583,21.493 154,21.5C 132.758,25.647 111.425,28.9804 90,31.5C 88.1598,30.1669 87.6598,30.3335 88.5,32C 87.8333,32.1667 87.1667,32.3333 86.5,32.5C 85.2141,32.1485 84.3808,31.4818 84,30.5C 82.2341,31.2335 80.4008,31.5668 78.5,31.5C 85.8475,28.8241 93.1808,26.1575 100.5,23.5C 102.46,22.8617 104.293,22.8617 106,23.5C 149.953,9.92108 194.119,9.25441 238.5,21.5C 238.833,21.3333 239.167,21.1667 239.5,21C 237.833,19.3333 236.167,17.6667 234.5,16C 234.728,15.6012 235.062,15.4346 235.5,15.5 Z"/></g>
<g><path style="opacity:0.993" fill="#be318b" d="M 247.5,30.5 C 247.833,30.5 248.167,30.5 248.5,30.5C 248.402,32.5529 249.069,34.2196 250.5,35.5C 250.263,36.791 250.596,37.791 251.5,38.5C 251.5,39.5 251.5,40.5 251.5,41.5C 250.659,42.0093 250.159,41.3427 250,39.5C 249.612,40.428 248.945,41.0946 248,41.5C 230.816,35.4061 213.483,31.4061 196,29.5C 176.718,29.878 157.552,29.878 138.5,29.5C 136.556,30.1892 134.556,30.6892 132.5,31C 119.167,31.3333 105.833,31.6667 92.5,32C 91.944,32.3826 91.6107,32.8826 91.5,33.5C 83.9306,33.0731 76.5973,34.0731 69.5,36.5C 69.5,35.5 69.5,34.5 69.5,33.5C 72.5979,33.2444 75.5979,32.5778 78.5,31.5C 80.4008,31.5668 82.2341,31.2335 84,30.5C 84.3808,31.4818 85.2141,32.1485 86.5,32.5C 87.1667,32.3333 87.8333,32.1667 88.5,32C 87.6598,30.3335 88.1598,30.1669 90,31.5C 111.425,28.9804 132.758,25.647 154,21.5C 155.583,21.493 157.249,21.8263 159,22.5C 160.085,21.7069 161.252,21.0402 162.5,20.5C 172.067,20.578 181.567,20.578 191,20.5C 194.572,22.2295 198.238,22.5629 202,21.5C 212.124,23.6587 222.291,25.8254 232.5,28C 237.727,29.0715 242.56,30.9048 247,33.5C 247.483,32.552 247.649,31.552 247.5,30.5 Z"/></g>
<g><path style="opacity:1" fill="#aa3b92" d="M 56.5,24.5 C 61.0605,24.7932 65.0605,25.4599 68.5,26.5C 69.1834,28.1765 70.5168,28.8432 72.5,28.5C 50.8402,34.9643 30.6736,44.631 12,57.5C 10.927,56.7203 9.76035,56.887 8.5,58C 6.63225,60.8283 4.46559,63.3283 2,65.5C 1.06564,64.1416 0.232305,62.8083 -0.5,61.5C -0.5,60.5 -0.5,59.5 -0.5,58.5C 0.166667,55.8333 0.833333,53.1667 1.5,50.5C 1.33669,52.8568 1.50335,55.1902 2,57.5C 2.33333,56.5 2.66667,55.5 3,54.5C 10.9295,47.9155 19.4295,42.0821 28.5,37C 38.2531,33.6204 47.5865,29.4537 56.5,24.5 Z"/></g>
<g><path style="opacity:0.008" fill="#8f38a6" d="M 8.5,27.5 C 8.16667,27.5 7.83333,27.5 7.5,27.5C 7.83333,24.8333 8.16667,24.8333 8.5,27.5 Z"/></g>
<g><path style="opacity:0.008" fill="#b73190" d="M 247.5,27.5 C 247.167,27.5 246.833,27.5 246.5,27.5C 246.833,24.8333 247.167,24.8333 247.5,27.5 Z"/></g>
<g><path style="opacity:0.012" fill="#9b3a9d" d="M 7.5,27.5 C 6.83333,28.1667 6.83333,28.1667 7.5,27.5 Z"/></g>
<g><path style="opacity:0.012" fill="#b9318d" d="M 247.5,27.5 C 248.833,28.1667 248.833,28.1667 247.5,27.5 Z"/></g>
<g><path style="opacity:1" fill="#b13c8d" d="M 100.5,23.5 C 93.1808,26.1575 85.8475,28.8241 78.5,31.5C 75.5979,32.5778 72.5979,33.2444 69.5,33.5C 69.5,34.5 69.5,35.5 69.5,36.5C 64.7881,37.7347 60.4547,39.7347 56.5,42.5C 37.396,49.9661 19.396,60.1328 2.5,73C 1.77338,74.3988 1.27338,75.8988 1,77.5C 0.817095,74.6353 0.317095,71.9686 -0.5,69.5C -0.5,66.8333 -0.5,64.1667 -0.5,61.5C 0.232305,62.8083 1.06564,64.1416 2,65.5C 4.46559,63.3283 6.63225,60.8283 8.5,58C 9.76035,56.887 10.927,56.7203 12,57.5C 30.6736,44.631 50.8402,34.9643 72.5,28.5C 81.622,26.3448 90.9554,24.6781 100.5,23.5 Z"/></g>
<g><path style="opacity:0.012" fill="#9a3a9e" d="M 6.5,30.5 C 5.83333,29.1667 5.83333,29.1667 6.5,30.5 Z"/></g>
<g><path style="opacity:0.012" fill="#ba318d" d="M 248.5,29.5 C 249.833,30.1667 249.833,30.1667 248.5,29.5 Z"/></g>
<g><path style="opacity:0.989" fill="#c63b8c" d="M 251.5,41.5 C 251.833,41.5 252.167,41.5 252.5,41.5C 252.232,43.099 252.566,44.4324 253.5,45.5C 253.5,47.1667 253.5,48.8333 253.5,50.5C 252.583,50.5064 252.083,49.5064 252,47.5C 251.667,48.8333 251.333,50.1667 251,51.5C 234.823,44.7471 217.989,40.4138 200.5,38.5C 198.667,38.5854 197.334,39.2521 196.5,40.5C 188.323,36.5232 179.657,34.3566 170.5,34C 144.169,33.5 117.835,33.3334 91.5,33.5C 91.6107,32.8826 91.944,32.3826 92.5,32C 105.833,31.6667 119.167,31.3333 132.5,31C 134.556,30.6892 136.556,30.1892 138.5,29.5C 157.552,29.878 176.718,29.878 196,29.5C 213.483,31.4061 230.816,35.4061 248,41.5C 248.945,41.0946 249.612,40.428 250,39.5C 250.159,41.3427 250.659,42.0093 251.5,41.5 Z"/></g>
<g><path style="opacity:0.012" fill="#9c3a9d" d="M 4.5,31.5 C 5.83333,32.1667 5.83333,32.1667 4.5,31.5 Z"/></g>
<g><path style="opacity:0.012" fill="#bb318d" d="M 249.5,31.5 C 250.833,32.1667 250.833,32.1667 249.5,31.5 Z"/></g>
<g><path style="opacity:1" fill="#fefbfb" d="M 91.5,33.5 C 117.835,33.3334 144.169,33.5 170.5,34C 179.657,34.3566 188.323,36.5232 196.5,40.5C 201.436,44.0963 206.103,48.0963 210.5,52.5C 211.846,54.5368 213.18,56.5368 214.5,58.5C 220.607,69.6958 223.273,81.6958 222.5,94.5C 222.5,119.833 222.5,145.167 222.5,170.5C 221.189,176.713 219.856,183.047 218.5,189.5C 216.368,194.425 213.702,199.092 210.5,203.5C 206.246,207.963 201.579,211.963 196.5,215.5C 191.158,217.722 185.825,219.722 180.5,221.5C 174.966,221.668 169.633,222.335 164.5,223.5C 159.167,223.5 153.833,223.5 148.5,223.5C 141.833,223.5 135.167,223.5 128.5,223.5C 121.833,223.5 115.167,223.5 108.5,223.5C 101.833,223.5 95.1667,223.5 88.5,223.5C 86.6208,222.659 84.6208,222.325 82.5,222.5C 72.8581,221.286 63.8581,218.286 55.5,213.5C 50.1275,209.129 45.4608,204.129 41.5,198.5C 38.3561,192.722 36.0228,186.722 34.5,180.5C 33.9492,177.193 33.6159,173.86 33.5,170.5C 33.3651,164.819 33.0318,159.152 32.5,153.5C 32.5,148.833 32.5,144.167 32.5,139.5C 32.5,135.5 32.5,131.5 32.5,127.5C 32.5,124.833 32.5,122.167 32.5,119.5C 32.5,115.833 32.5,112.167 32.5,108.5C 32.5,105.5 32.5,102.5 32.5,99.5C 32.5,96.5 32.5,93.5 32.5,90.5C 32.5,89.1667 32.5,87.8333 32.5,86.5C 33.388,83.9455 33.7214,81.2788 33.5,78.5C 34.4967,75.183 35.4967,71.8497 36.5,68.5C 37.5587,65.3821 38.8921,62.3821 40.5,59.5C 44.4524,52.5471 49.7858,46.8805 56.5,42.5C 60.4547,39.7347 64.7881,37.7347 69.5,36.5C 76.5973,34.0731 83.9306,33.0731 91.5,33.5 Z"/></g>
<g><path style="opacity:0.01" fill="#bd308c" d="M 250.5,35.5 C 250.369,34.7611 250.536,34.0944 251,33.5C 251.692,34.4368 251.525,35.1034 250.5,35.5 Z"/></g>
<g><path style="opacity:0.012" fill="#973aa0" d="M 4.5,35.5 C 3.47498,35.1034 3.30831,34.4368 4,33.5C 4.46434,34.0944 4.63101,34.7611 4.5,35.5 Z"/></g>
<g><path style="opacity:0.008" fill="#bd318c" d="M 251.5,38.5 C 251.369,37.7611 251.536,37.0944 252,36.5C 252.692,37.4368 252.525,38.1034 251.5,38.5 Z"/></g>
<g><path style="opacity:0.983" fill="#cb3085" d="M 253.5,50.5 C 254.167,53.1667 254.833,55.8333 255.5,58.5C 255.5,59.1667 255.5,59.8333 255.5,60.5C 253.836,59.0512 253.002,57.0512 253,54.5C 252.798,56.2556 252.298,57.9223 251.5,59.5C 237.944,53.7792 223.944,49.9458 209.5,48C 211.036,49.4681 211.37,50.9681 210.5,52.5C 206.103,48.0963 201.436,44.0963 196.5,40.5C 197.334,39.2521 198.667,38.5854 200.5,38.5C 217.989,40.4138 234.823,44.7471 251,51.5C 251.333,50.1667 251.667,48.8333 252,47.5C 252.083,49.5064 252.583,50.5064 253.5,50.5 Z"/></g>
<g><path style="opacity:0.012" fill="#9f3a9a" d="M 2.5,41.5 C 1.42654,40.7494 1.25988,39.7494 2,38.5C 2.48278,39.448 2.64945,40.448 2.5,41.5 Z"/></g>
<g><path style="opacity:0.012" fill="#c12f8a" d="M 252.5,41.5 C 252.369,40.7611 252.536,40.0944 253,39.5C 253.692,40.4368 253.525,41.1034 252.5,41.5 Z"/></g>
<g><path style="opacity:0.016" fill="#9d3a9c" d="M 1.5,45.5 C 0.426544,44.7494 0.259877,43.7494 1,42.5C 1.48278,43.448 1.64945,44.448 1.5,45.5 Z"/></g>
<g><path style="opacity:0.016" fill="#c23089" d="M 253.5,45.5 C 253.351,44.448 253.517,43.448 254,42.5C 254.74,43.7494 254.573,44.7494 253.5,45.5 Z"/></g>
<g><path style="opacity:0.008" fill="#a33c96" d="M -0.5,46.5 C 0.833333,47.5 0.833333,48.5 -0.5,49.5C -0.5,48.5 -0.5,47.5 -0.5,46.5 Z"/></g>
<g><path style="opacity:0.009" fill="#c52f88" d="M 255.5,46.5 C 255.5,47.5 255.5,48.5 255.5,49.5C 254.167,48.5 254.167,47.5 255.5,46.5 Z"/></g>
<g><path style="opacity:0.975" fill="#d02e81" d="M 255.5,60.5 C 255.5,64.1667 255.5,67.8333 255.5,71.5C 254.71,70.3915 254.21,69.0581 254,67.5C 253.667,68.5 253.333,69.5 253,70.5C 240.544,64.3602 227.711,60.3602 214.5,58.5C 213.18,56.5368 211.846,54.5368 210.5,52.5C 211.37,50.9681 211.036,49.4681 209.5,48C 223.944,49.9458 237.944,53.7792 251.5,59.5C 252.298,57.9223 252.798,56.2556 253,54.5C 253.002,57.0512 253.836,59.0512 255.5,60.5 Z"/></g>
<g><path style="opacity:0.999" fill="#b54287" d="M 56.5,42.5 C 49.7858,46.8805 44.4524,52.5471 40.5,59.5C 29.0592,62.6039 19.0592,68.2705 10.5,76.5C 6.40003,77.1137 3.23337,79.1137 1,82.5C 0.76791,81.2625 0.26791,80.2625 -0.5,79.5C -0.5,76.1667 -0.5,72.8333 -0.5,69.5C 0.317095,71.9686 0.817095,74.6353 1,77.5C 1.27338,75.8988 1.77338,74.3988 2.5,73C 19.396,60.1328 37.396,49.9661 56.5,42.5 Z"/></g>
<g><path style="opacity:1" fill="#ca447b" d="M 90.5,50.5 C 88.0314,51.3171 85.3647,51.8171 82.5,52C 85.5,52.3333 88.5,52.6667 91.5,53C 90.8333,53.3333 90.1667,53.6667 89.5,54C 91.3146,54.7568 92.9812,55.5902 94.5,56.5C 83.0712,58.4824 71.9045,61.4824 61,65.5C 60.51,64.2068 60.3433,62.8734 60.5,61.5C 68.7942,53.5097 78.7942,49.843 90.5,50.5 Z"/></g>
<g><path style="opacity:0.996" fill="#d72c7d" d="M 255.5,71.5 C 255.5,105.833 255.5,140.167 255.5,174.5C 253.405,171.79 252.739,168.79 253.5,165.5C 253.154,164.304 252.654,164.304 252,165.5C 250.505,163.89 250.339,162.224 251.5,160.5C 250.833,160.167 250.167,159.833 249.5,159.5C 249.833,158.833 250.167,158.167 250.5,157.5C 249.167,155.833 247.833,154.167 246.5,152.5C 246.833,151.833 247.167,151.167 247.5,150.5C 247.154,149.304 246.654,149.304 246,150.5C 244.632,149.007 244.465,147.507 245.5,146C 242.876,145.424 242.209,144.09 243.5,142C 241.431,141.676 241.098,140.842 242.5,139.5C 239.478,135.483 236.478,130.983 233.5,126C 234.451,125.282 234.617,124.449 234,123.5C 233.333,124.833 232.667,124.833 232,123.5C 230.877,120.751 229.377,118.251 227.5,116C 228.451,115.282 228.617,114.449 228,113.5C 227.259,114.641 226.425,114.641 225.5,113.5C 224.832,110.694 224.166,108.028 223.5,105.5C 223.815,101.629 223.482,97.9619 222.5,94.5C 223.273,81.6958 220.607,69.6958 214.5,58.5C 227.711,60.3602 240.544,64.3602 253,70.5C 253.333,69.5 253.667,68.5 254,67.5C 254.21,69.0581 254.71,70.3915 255.5,71.5 Z"/></g>
<g><path style="opacity:1" fill="#da3873" d="M 172.5,67.5 C 167.811,70.988 166.311,75.6547 168,81.5C 171.741,88.4229 177.241,90.2563 184.5,87C 186.402,85.2703 188.069,83.437 189.5,81.5C 191.886,82.3733 193.886,83.8733 195.5,86C 195.167,86.3333 194.833,86.6667 194.5,87C 197.295,88.7932 199.795,90.9598 202,93.5C 202.539,90.4715 203.206,87.4715 204,84.5C 204.173,90.3482 204.673,96.0149 205.5,101.5C 205.5,111.833 205.5,122.167 205.5,132.5C 204.504,132.586 203.671,132.252 203,131.5C 185.706,103.877 163.706,81.5439 137,64.5C 131.963,62.9935 126.796,61.9935 121.5,61.5C 113.126,61.8325 104.46,62.4991 95.5,63.5C 98.8819,62.3129 102.215,60.8129 105.5,59C 102.304,58.9218 99.3039,58.0885 96.5,56.5C 110.075,54.8051 123.409,54.6384 136.5,56C 143.65,57.0257 150.983,58.359 158.5,60C 161.333,61.5 163.5,63.6667 165,66.5C 166.566,65.9394 167.899,66.6061 169,68.5C 170.041,66.6885 171.207,66.3552 172.5,67.5 Z"/></g>
<g><path style="opacity:1" fill="#dd3f6e" d="M 205.5,132.5 C 205.829,145.677 205.495,158.677 204.5,171.5C 204.666,165.491 204.499,159.491 204,153.5C 203.667,158.167 203.333,162.833 203,167.5C 202.788,164.242 202.288,161.076 201.5,158C 202.535,156.493 202.368,154.993 201,153.5C 200.333,154.833 199.667,154.833 199,153.5C 196.989,150.561 195.989,147.561 196,144.5C 195.667,144.833 195.333,145.167 195,145.5C 193.059,143.684 192.392,141.684 193,139.5C 192.333,140.833 191.667,140.833 191,139.5C 189.204,136.073 187.037,132.906 184.5,130C 185.833,128.16 185.666,127.66 184,128.5C 183.167,127.667 182.333,126.833 181.5,126C 182.833,124.16 182.666,123.66 181,124.5C 178.837,122.859 177.337,120.859 176.5,118.5C 168.49,91.8161 150.49,78.8161 122.5,79.5C 125.977,78.6773 129.644,78.1773 133.5,78C 130.5,77.6667 127.5,77.3333 124.5,77C 125.833,76.6667 127.167,76.3333 128.5,76C 126.321,75.5581 125.655,74.5581 126.5,73C 125.551,72.3828 124.718,72.5494 124,73.5C 121.626,71.8841 119.793,70.2174 118.5,68.5C 110.557,69.457 102.557,69.7904 94.5,69.5C 90.5355,69.1759 86.5355,68.1759 82.5,66.5C 86.5749,64.8816 90.9082,63.8816 95.5,63.5C 104.46,62.4991 113.126,61.8325 121.5,61.5C 126.796,61.9935 131.963,62.9935 137,64.5C 163.706,81.5439 185.706,103.877 203,131.5C 203.671,132.252 204.504,132.586 205.5,132.5 Z"/></g>
<g><path style="opacity:1" fill="#ce4474" d="M 94.5,56.5 C 95.1667,56.5 95.8333,56.5 96.5,56.5C 99.3039,58.0885 102.304,58.9218 105.5,59C 102.215,60.8129 98.8819,62.3129 95.5,63.5C 90.9082,63.8816 86.5749,64.8816 82.5,66.5C 72.6361,67.5328 63.6361,70.1994 55.5,74.5C 54.8165,74.1373 54.1499,73.8039 53.5,73.5C 54.809,68.8792 57.1423,64.8792 60.5,61.5C 60.3433,62.8734 60.51,64.2068 61,65.5C 71.9045,61.4824 83.0712,58.4824 94.5,56.5 Z"/></g>
<g><path style="opacity:1" fill="#fefbfc" d="M 189.5,81.5 C 188.069,83.437 186.402,85.2703 184.5,87C 177.241,90.2563 171.741,88.4229 168,81.5C 166.311,75.6547 167.811,70.988 172.5,67.5C 184.785,64.1181 190.452,68.7848 189.5,81.5 Z"/></g>
<g><path style="opacity:1" fill="#bf487a" d="M 36.5,68.5 C 35.4967,71.8497 34.4967,75.183 33.5,78.5C 32.448,78.3505 31.448,78.5172 30.5,79C 23.4563,83.7302 16.4563,88.3969 9.5,93C 6.09677,95.2807 3.26344,98.114 1,101.5C 0.617425,100.944 0.117425,100.611 -0.5,100.5C -0.5,94.8333 -0.5,89.1667 -0.5,83.5C 0.321983,85.3885 1.15532,87.3885 2,89.5C 7.35319,84.6457 12.8532,79.9791 18.5,75.5C 19.3857,74.675 19.719,73.675 19.5,72.5C 24.0379,72.0036 28.7046,70.8369 33.5,69C 34.1258,68.2496 34.6258,67.4162 35,66.5C 35.2784,67.4158 35.7784,68.0825 36.5,68.5 Z"/></g>
<g><path style="opacity:1" fill="#d6496a" d="M 82.5,66.5 C 86.5355,68.1759 90.5355,69.1759 94.5,69.5C 88.2455,73.1225 81.5788,75.9558 74.5,78C 77.1529,78.8176 79.8196,79.3176 82.5,79.5C 72.7932,81.7909 63.2932,84.7909 54,88.5C 53.228,88.3552 52.5613,88.0219 52,87.5C 51.7679,88.7375 51.2679,89.7375 50.5,90.5C 49.9967,84.4394 50.9967,78.7727 53.5,73.5C 54.1499,73.8039 54.8165,74.1373 55.5,74.5C 63.6361,70.1994 72.6361,67.5328 82.5,66.5 Z"/></g>
<g><path style="opacity:1" fill="#d7357c" d="M 90.5,50.5 C 117.502,50.3334 144.502,50.5 171.5,51C 190.411,53.2442 201.578,63.7442 205,82.5C 205.5,88.8246 205.666,95.1579 205.5,101.5C 204.673,96.0149 204.173,90.3482 204,84.5C 203.206,87.4715 202.539,90.4715 202,93.5C 199.795,90.9598 197.295,88.7932 194.5,87C 194.833,86.6667 195.167,86.3333 195.5,86C 193.886,83.8733 191.886,82.3733 189.5,81.5C 190.452,68.7848 184.785,64.1181 172.5,67.5C 171.207,66.3552 170.041,66.6885 169,68.5C 167.899,66.6061 166.566,65.9394 165,66.5C 163.5,63.6667 161.333,61.5 158.5,60C 150.983,58.359 143.65,57.0257 136.5,56C 123.409,54.6384 110.075,54.8051 96.5,56.5C 95.8333,56.5 95.1667,56.5 94.5,56.5C 92.9812,55.5902 91.3146,54.7568 89.5,54C 90.1667,53.6667 90.8333,53.3333 91.5,53C 88.5,52.6667 85.5,52.3333 82.5,52C 85.3647,51.8171 88.0314,51.3171 90.5,50.5 Z"/></g>
<g><path style="opacity:0.999" fill="#ba4581" d="M 40.5,59.5 C 38.8921,62.3821 37.5587,65.3821 36.5,68.5C 35.7784,68.0825 35.2784,67.4158 35,66.5C 34.6258,67.4162 34.1258,68.2496 33.5,69C 28.7046,70.8369 24.0379,72.0036 19.5,72.5C 19.719,73.675 19.3857,74.675 18.5,75.5C 12.8532,79.9791 7.35319,84.6457 2,89.5C 1.15532,87.3885 0.321983,85.3885 -0.5,83.5C -0.5,82.1667 -0.5,80.8333 -0.5,79.5C 0.26791,80.2625 0.76791,81.2625 1,82.5C 3.23337,79.1137 6.40003,77.1137 10.5,76.5C 19.0592,68.2705 29.0592,62.6039 40.5,59.5 Z"/></g>
<g><path style="opacity:1" fill="#df4566" d="M 122.5,79.5 C 117.967,79.7169 113.634,80.7169 109.5,82.5C 105.372,80.2725 101.039,78.2725 96.5,76.5C 91.7477,77.2902 87.081,78.2902 82.5,79.5C 79.8196,79.3176 77.1529,78.8176 74.5,78C 81.5788,75.9558 88.2455,73.1225 94.5,69.5C 102.557,69.7904 110.557,69.457 118.5,68.5C 119.793,70.2174 121.626,71.8841 124,73.5C 124.718,72.5494 125.551,72.3828 126.5,73C 125.655,74.5581 126.321,75.5581 128.5,76C 127.167,76.3333 125.833,76.6667 124.5,77C 127.5,77.3333 130.5,77.6667 133.5,78C 129.644,78.1773 125.977,78.6773 122.5,79.5 Z"/></g>
<g><path style="opacity:1" fill="#e04c60" d="M 109.5,82.5 C 104.559,84.7946 99.892,87.4613 95.5,90.5C 94.5041,90.4142 93.6708,90.7476 93,91.5C 91.4702,90.364 90.1369,89.364 89,88.5C 87.1598,89.8331 86.6598,89.6665 87.5,88C 78.9229,85.8194 70.5896,86.9861 62.5,91.5C 61.0944,90.3318 59.9277,90.6652 59,92.5C 56.1684,91.2138 53.3351,91.2138 50.5,92.5C 50.5,91.8333 50.5,91.1667 50.5,90.5C 51.2679,89.7375 51.7679,88.7375 52,87.5C 52.5613,88.0219 53.228,88.3552 54,88.5C 63.2932,84.7909 72.7932,81.7909 82.5,79.5C 87.081,78.2902 91.7477,77.2902 96.5,76.5C 101.039,78.2725 105.372,80.2725 109.5,82.5 Z"/></g>
<g><path style="opacity:1" fill="#fefcfc" d="M 122.5,79.5 C 150.49,78.8161 168.49,91.8161 176.5,118.5C 176.5,120.833 176.5,123.167 176.5,125.5C 176.496,134.187 174.829,142.521 171.5,150.5C 169.847,153.131 168.181,155.797 166.5,158.5C 161.77,163.236 156.77,167.569 151.5,171.5C 146.341,172.997 141.341,174.664 136.5,176.5C 131.833,176.5 127.167,176.5 122.5,176.5C 99.6426,172.979 85.3093,159.979 79.5,137.5C 79.5,132.167 79.5,126.833 79.5,121.5C 80.295,114.782 82.295,108.449 85.5,102.5C 88.823,98.5398 92.1563,94.5398 95.5,90.5C 99.892,87.4613 104.559,84.7946 109.5,82.5C 113.634,80.7169 117.967,79.7169 122.5,79.5 Z"/></g>
<g><path style="opacity:0.998" fill="#c54c73" d="M 33.5,78.5 C 33.7214,81.2788 33.388,83.9455 32.5,86.5C 27.4103,88.2211 22.4103,90.8878 17.5,94.5C 11.0996,99.0316 5.09959,104.032 -0.5,109.5C -0.5,106.5 -0.5,103.5 -0.5,100.5C 0.117425,100.611 0.617425,100.944 1,101.5C 3.26344,98.114 6.09677,95.2807 9.5,93C 16.4563,88.3969 23.4563,83.7302 30.5,79C 31.448,78.5172 32.448,78.3505 33.5,78.5 Z"/></g>
<g><path style="opacity:1" fill="#ca4f6d" d="M 32.5,86.5 C 32.5,87.8333 32.5,89.1667 32.5,90.5C 27.6824,94.1511 23.0157,97.9844 18.5,102C 15.4383,103.205 12.4383,104.372 9.5,105.5C 9.64945,106.552 9.48278,107.552 9,108.5C 5.91612,111.43 2.74945,114.097 -0.5,116.5C -0.5,114.167 -0.5,111.833 -0.5,109.5C 5.09959,104.032 11.0996,99.0316 17.5,94.5C 22.4103,90.8878 27.4103,88.2211 32.5,86.5 Z"/></g>
<g><path style="opacity:1" fill="#e3525a" d="M 95.5,90.5 C 92.1563,94.5398 88.823,98.5398 85.5,102.5C 85.5654,102.062 85.3988,101.728 85,101.5C 84.5814,102.672 83.9147,103.672 83,104.5C 82.3828,103.551 82.5494,102.718 83.5,102C 82.0069,100.632 80.5069,100.465 79,101.5C 78.6758,99.4311 77.8425,99.0977 76.5,100.5C 76.1667,99.8333 75.8333,99.1667 75.5,98.5C 73.7763,99.6613 72.1096,99.4947 70.5,98C 71.6956,97.3457 71.6956,96.8457 70.5,96.5C 69.8333,96.8333 69.1667,97.1667 68.5,97.5C 68.1667,96.8333 67.8333,96.1667 67.5,95.5C 62.7315,97.0501 58.0648,98.8834 53.5,101C 52.9152,102.302 52.2485,103.469 51.5,104.5C 50.6758,101.236 50.3424,97.9023 50.5,94.5C 50.5,93.8333 50.5,93.1667 50.5,92.5C 53.3351,91.2138 56.1684,91.2138 59,92.5C 59.9277,90.6652 61.0944,90.3318 62.5,91.5C 70.5896,86.9861 78.9229,85.8194 87.5,88C 86.6598,89.6665 87.1598,89.8331 89,88.5C 90.1369,89.364 91.4702,90.364 93,91.5C 93.6708,90.7476 94.5041,90.4142 95.5,90.5 Z"/></g>
<g><path style="opacity:1" fill="#d05366" d="M 32.5,90.5 C 32.5,93.5 32.5,96.5 32.5,99.5C 20.6124,106.729 9.61237,115.062 -0.5,124.5C -0.5,121.833 -0.5,119.167 -0.5,116.5C 2.74945,114.097 5.91612,111.43 9,108.5C 9.48278,107.552 9.64945,106.552 9.5,105.5C 12.4383,104.372 15.4383,103.205 18.5,102C 23.0157,97.9844 27.6824,94.1511 32.5,90.5 Z"/></g>
<g><path style="opacity:1" fill="#e24c61" d="M 156.5,140.5 C 156.565,140.062 156.399,139.728 156,139.5C 153.794,143.531 153.294,143.364 154.5,139C 144.965,127.798 134.465,117.631 123,108.5C 121.16,109.833 120.66,109.666 121.5,108C 120.667,107.167 119.833,106.333 119,105.5C 117.16,106.833 116.66,106.666 117.5,105C 116.675,103.312 115.675,103.145 114.5,104.5C 113.205,103.902 111.872,103.402 110.5,103C 112.544,102.502 113.878,101.335 114.5,99.5C 135.784,92.5564 150.617,99.5564 159,120.5C 160.031,127.525 159.197,134.192 156.5,140.5 Z"/></g>
<g><path style="opacity:1" fill="#e4525a" d="M 114.5,99.5 C 113.878,101.335 112.544,102.502 110.5,103C 111.872,103.402 113.205,103.902 114.5,104.5C 115.675,103.145 116.675,103.312 117.5,105C 116.66,106.666 117.16,106.833 119,105.5C 119.833,106.333 120.667,107.167 121.5,108C 120.66,109.666 121.16,109.833 123,108.5C 134.465,117.631 144.965,127.798 154.5,139C 153.294,143.364 153.794,143.531 156,139.5C 156.399,139.728 156.565,140.062 156.5,140.5C 154.692,145.979 151.358,150.312 146.5,153.5C 141.255,146.081 135.422,139.081 129,132.5C 128.667,132.833 128.333,133.167 128,133.5C 124.833,128.985 121.666,125.818 118.5,124C 115,121.167 111.5,118.333 108,115.5C 107.586,115.957 107.086,116.291 106.5,116.5C 106.704,115.471 106.204,114.471 105,113.5C 103.085,114.916 101.585,114.582 100.5,112.5C 103.906,106.759 108.572,102.426 114.5,99.5 Z"/></g>
<g><path style="opacity:1" fill="#db5d58" d="M 32.5,108.5 C 32.5,112.167 32.5,115.833 32.5,119.5C 31.8826,119.389 31.3826,119.056 31,118.5C 27.3211,122.262 23.1544,125.429 18.5,128C 12.5707,134.436 6.23741,140.269 -0.5,145.5C -0.5,141.167 -0.5,136.833 -0.5,132.5C 8.94422,123.055 19.2776,114.722 30.5,107.5C 31.1835,107.863 31.8501,108.196 32.5,108.5 Z"/></g>
<g><path style="opacity:1" fill="#d55860" d="M 32.5,99.5 C 32.5,102.5 32.5,105.5 32.5,108.5C 31.8501,108.196 31.1835,107.863 30.5,107.5C 19.2776,114.722 8.94422,123.055 -0.5,132.5C -0.5,129.833 -0.5,127.167 -0.5,124.5C 9.61237,115.062 20.6124,106.729 32.5,99.5 Z"/></g>
<g><path style="opacity:1" fill="#eb6955" d="M 50.5,94.5 C 50.3424,97.9023 50.6758,101.236 51.5,104.5C 51.3354,107.518 51.502,110.518 52,113.5C 53.164,113.835 54.4974,113.835 56,113.5C 56.677,115.689 57.8437,116.022 59.5,114.5C 59.8333,115.167 60.1667,115.833 60.5,116.5C 61.1667,116.167 61.8333,115.833 62.5,115.5C 63.6956,115.846 63.6956,116.346 62.5,117C 63.4491,117.617 64.2825,117.451 65,116.5C 65.6054,118.481 66.6054,118.815 68,117.5C 68.3333,118.167 68.6667,118.833 69,119.5C 70.0601,119.746 71.2268,119.746 72.5,119.5C 73.6956,119.846 73.6956,120.346 72.5,121C 74.4188,122.934 75.9188,122.767 77,120.5C 77.6708,121.252 78.5041,121.586 79.5,121.5C 79.5,126.833 79.5,132.167 79.5,137.5C 78.7784,137.918 78.2784,138.584 78,139.5C 76.4525,136.456 73.9525,134.456 70.5,133.5C 69.1575,134.902 68.3242,134.569 68,132.5C 66.1598,133.833 65.6598,133.666 66.5,132C 65.0069,130.632 63.5069,130.465 62,131.5C 61.6924,130.692 61.1924,130.025 60.5,129.5C 59.0971,129.36 57.5971,129.36 56,129.5C 54.3141,126.978 52.9808,127.311 52,130.5C 51.6667,125.833 51.3333,121.167 51,116.5C 50.5003,124.493 50.3336,132.493 50.5,140.5C 50.5,146.833 50.5,153.167 50.5,159.5C 49.1667,137.833 49.1667,116.167 50.5,94.5 Z"/></g>
<g><path style="opacity:1" fill="#e75a52" d="M 85.5,102.5 C 82.295,108.449 80.295,114.782 79.5,121.5C 78.5041,121.586 77.6708,121.252 77,120.5C 75.9188,122.767 74.4188,122.934 72.5,121C 73.6956,120.346 73.6956,119.846 72.5,119.5C 71.2268,119.746 70.0601,119.746 69,119.5C 68.6667,118.833 68.3333,118.167 68,117.5C 66.6054,118.815 65.6054,118.481 65,116.5C 64.2825,117.451 63.4491,117.617 62.5,117C 63.6956,116.346 63.6956,115.846 62.5,115.5C 61.8333,115.833 61.1667,116.167 60.5,116.5C 60.1667,115.833 59.8333,115.167 59.5,114.5C 57.8437,116.022 56.677,115.689 56,113.5C 54.4974,113.835 53.164,113.835 52,113.5C 51.502,110.518 51.3354,107.518 51.5,104.5C 52.2485,103.469 52.9152,102.302 53.5,101C 58.0648,98.8834 62.7315,97.0501 67.5,95.5C 67.8333,96.1667 68.1667,96.8333 68.5,97.5C 69.1667,97.1667 69.8333,96.8333 70.5,96.5C 71.6956,96.8457 71.6956,97.3457 70.5,98C 72.1096,99.4947 73.7763,99.6613 75.5,98.5C 75.8333,99.1667 76.1667,99.8333 76.5,100.5C 77.8425,99.0977 78.6758,99.4311 79,101.5C 80.5069,100.465 82.0069,100.632 83.5,102C 82.5494,102.718 82.3828,103.551 83,104.5C 83.9147,103.672 84.5814,102.672 85,101.5C 85.3988,101.728 85.5654,102.062 85.5,102.5 Z"/></g>
<g><path style="opacity:1" fill="#e65755" d="M 100.5,112.5 C 101.585,114.582 103.085,114.916 105,113.5C 106.204,114.471 106.704,115.471 106.5,116.5C 107.086,116.291 107.586,115.957 108,115.5C 111.5,118.333 115,121.167 118.5,124C 121.666,125.818 124.833,128.985 128,133.5C 128.333,133.167 128.667,132.833 129,132.5C 135.422,139.081 141.255,146.081 146.5,153.5C 143.226,155.97 139.559,157.636 135.5,158.5C 126.499,145.834 115.499,135.167 102.5,126.5C 100.866,126.968 99.6995,127.968 99,129.5C 98.0656,128.142 97.2323,126.808 96.5,125.5C 96.2503,120.588 97.5837,116.255 100.5,112.5 Z"/></g>
<g><path style="opacity:1" fill="#d93178" d="M 223.5,105.5 C 224.166,108.028 224.832,110.694 225.5,113.5C 226.425,114.641 227.259,114.641 228,113.5C 228.617,114.449 228.451,115.282 227.5,116C 229.377,118.251 230.877,120.751 232,123.5C 232.667,124.833 233.333,124.833 234,123.5C 234.617,124.449 234.451,125.282 233.5,126C 236.478,130.983 239.478,135.483 242.5,139.5C 241.098,140.842 241.431,141.676 243.5,142C 242.209,144.09 242.876,145.424 245.5,146C 244.465,147.507 244.632,149.007 246,150.5C 246.654,149.304 247.154,149.304 247.5,150.5C 247.167,151.167 246.833,151.833 246.5,152.5C 247.833,154.167 249.167,155.833 250.5,157.5C 250.167,158.167 249.833,158.833 249.5,159.5C 250.167,159.833 250.833,160.167 251.5,160.5C 250.339,162.224 250.505,163.89 252,165.5C 252.654,164.304 253.154,164.304 253.5,165.5C 252.739,168.79 253.405,171.79 255.5,174.5C 255.5,181.833 255.5,189.167 255.5,196.5C 254.527,198.948 254.194,201.615 254.5,204.5C 253.549,205.919 253.216,207.585 253.5,209.5C 252.566,210.568 252.232,211.901 252.5,213.5C 251.833,213.5 251.5,213.833 251.5,214.5C 250.637,215.463 249.97,215.463 249.5,214.5C 251.12,212.261 250.787,210.427 248.5,209C 249.022,208.439 249.355,207.772 249.5,207C 248.279,204.294 247.279,201.628 246.5,199C 247.925,197.286 247.592,195.953 245.5,195C 246.131,192.645 246.131,190.478 245.5,188.5C 243.615,187.803 243.282,186.803 244.5,185.5C 242.862,184.295 242.529,182.962 243.5,181.5C 241.615,180.803 241.282,179.803 242.5,178.5C 240.615,177.803 240.282,176.803 241.5,175.5C 239.615,174.803 239.282,173.803 240.5,172.5C 238.615,171.803 238.282,170.803 239.5,169.5C 237.615,168.803 237.282,167.803 238.5,166.5C 238.032,164.866 237.032,163.7 235.5,163C 236.584,160.81 235.917,159.144 233.5,158C 233.833,157.667 234.167,157.333 234.5,157C 233.199,153.514 231.532,150.847 229.5,149C 230.634,147.984 230.301,147.317 228.5,147C 229.634,145.984 229.301,145.317 227.5,145C 228.634,143.984 228.301,143.317 226.5,143C 227.634,141.984 227.301,141.317 225.5,141C 226.28,139.927 226.113,138.76 225,137.5C 223.957,126.857 223.457,116.191 223.5,105.5 Z"/></g>
<g><path style="opacity:1" fill="#df4268" d="M 176.5,118.5 C 177.337,120.859 178.837,122.859 181,124.5C 182.666,123.66 182.833,124.16 181.5,126C 182.333,126.833 183.167,127.667 184,128.5C 185.666,127.66 185.833,128.16 184.5,130C 187.037,132.906 189.204,136.073 191,139.5C 191.667,140.833 192.333,140.833 193,139.5C 192.392,141.684 193.059,143.684 195,145.5C 195.333,145.167 195.667,144.833 196,144.5C 195.989,147.561 196.989,150.561 199,153.5C 199.667,154.833 200.333,154.833 201,153.5C 202.368,154.993 202.535,156.493 201.5,158C 202.288,161.076 202.788,164.242 203,167.5C 203.333,162.833 203.667,158.167 204,153.5C 204.499,159.491 204.666,165.491 204.5,171.5C 204.326,173.861 203.993,176.194 203.5,178.5C 202.71,177.391 202.21,176.058 202,174.5C 201.577,175.956 200.744,176.456 199.5,176C 199.957,175.586 200.291,175.086 200.5,174.5C 199.833,174.167 199.167,173.833 198.5,173.5C 198.5,172.167 198.5,170.833 198.5,169.5C 198.154,168.304 197.654,168.304 197,169.5C 195.098,165.556 192.931,161.222 190.5,156.5C 191.041,154.477 190.541,152.477 189,150.5C 188.333,149.167 187.667,149.167 187,150.5C 187.979,148.721 187.646,147.055 186,145.5C 185.333,144.167 184.667,144.167 184,145.5C 185.101,143.208 184.268,141.708 181.5,141C 182.345,139.442 181.679,138.442 179.5,138C 180.15,136.391 179.65,134.891 178,133.5C 177.817,130.635 177.317,127.969 176.5,125.5C 176.5,123.167 176.5,120.833 176.5,118.5 Z"/></g>
<g><path style="opacity:0.999" fill="#e2644d" d="M 32.5,119.5 C 32.5,122.167 32.5,124.833 32.5,127.5C 31.8826,127.389 31.3826,127.056 31,126.5C 19.41,134.921 8.91002,144.588 -0.5,155.5C -0.5,152.167 -0.5,148.833 -0.5,145.5C 6.23741,140.269 12.5707,134.436 18.5,128C 23.1544,125.429 27.3211,122.262 31,118.5C 31.3826,119.056 31.8826,119.389 32.5,119.5 Z"/></g>
<g><path style="opacity:1" fill="#ec6d40" d="M 32.5,139.5 C 32.5,144.167 32.5,148.833 32.5,153.5C 27.8403,151.964 22.8403,151.464 17.5,152C 12.522,155.316 7.85538,158.983 3.5,163C 2.55198,163.483 1.55198,163.649 0.5,163.5C 0.737305,164.791 0.403972,165.791 -0.5,166.5C -0.5,165.167 -0.5,163.833 -0.5,162.5C 5.85196,155.463 12.5186,148.63 19.5,142C 20.6721,141.581 21.6721,140.915 22.5,140C 26.0313,139.727 29.3647,139.56 32.5,139.5 Z"/></g>
<g><path style="opacity:1" fill="#ec6745" d="M 79.5,137.5 C 85.3093,159.979 99.6426,172.979 122.5,176.5C 122.966,178.201 122.966,179.701 122.5,181C 123.579,181.956 124.745,182.789 126,183.5C 125.421,186.657 126.754,188.991 130,190.5C 131.675,192.591 132.175,194.758 131.5,197C 133.569,197.324 133.902,198.158 132.5,199.5C 133,200.5 133.5,201.5 134,202.5C 134.654,201.304 135.154,201.304 135.5,202.5C 133.577,203.308 131.577,203.808 129.5,204C 134.351,204.174 139.018,204.674 143.5,205.5C 135.5,205.5 127.5,205.5 119.5,205.5C 108.332,180.971 89.9985,161.971 64.5,148.5C 63.914,148.709 63.414,149.043 63,149.5C 62,148.5 61,147.5 60,146.5C 59.586,146.957 59.086,147.291 58.5,147.5C 58.1667,146.833 57.8333,146.167 57.5,145.5C 56.1575,146.902 55.3242,146.569 55,144.5C 54.2825,145.451 53.4491,145.617 52.5,145C 51.9011,143.378 51.2344,141.878 50.5,140.5C 50.3336,132.493 50.5003,124.493 51,116.5C 51.3333,121.167 51.6667,125.833 52,130.5C 52.9808,127.311 54.3141,126.978 56,129.5C 57.5971,129.36 59.0971,129.36 60.5,129.5C 61.1924,130.025 61.6924,130.692 62,131.5C 63.5069,130.465 65.0069,130.632 66.5,132C 65.6598,133.666 66.1598,133.833 68,132.5C 68.3242,134.569 69.1575,134.902 70.5,133.5C 73.9525,134.456 76.4525,136.456 78,139.5C 78.2784,138.584 78.7784,137.918 79.5,137.5 Z"/></g>
<g><path style="opacity:1" fill="#e85d51" d="M 96.5,125.5 C 97.2323,126.808 98.0656,128.142 99,129.5C 99.6995,127.968 100.866,126.968 102.5,126.5C 115.499,135.167 126.499,145.834 135.5,158.5C 119.1,161.883 106.933,156.216 99,141.5C 97.0382,136.344 96.2049,131.011 96.5,125.5 Z"/></g>
<g><path style="opacity:0.99" fill="#e76a46" d="M 32.5,127.5 C 32.5,131.5 32.5,135.5 32.5,139.5C 29.3647,139.56 26.0313,139.727 22.5,140C 21.6721,140.915 20.6721,141.581 19.5,142C 12.5186,148.63 5.85196,155.463 -0.5,162.5C -0.5,160.167 -0.5,157.833 -0.5,155.5C 8.91002,144.588 19.41,134.921 31,126.5C 31.3826,127.056 31.8826,127.389 32.5,127.5 Z"/></g>
<g><path style="opacity:1" fill="#e04764" d="M 176.5,125.5 C 177.317,127.969 177.817,130.635 178,133.5C 179.65,134.891 180.15,136.391 179.5,138C 181.679,138.442 182.345,139.442 181.5,141C 184.268,141.708 185.101,143.208 184,145.5C 184.667,144.167 185.333,144.167 186,145.5C 187.646,147.055 187.979,148.721 187,150.5C 187.667,149.167 188.333,149.167 189,150.5C 190.541,152.477 191.041,154.477 190.5,156.5C 192.931,161.222 195.098,165.556 197,169.5C 197.654,168.304 198.154,168.304 198.5,169.5C 198.5,170.833 198.5,172.167 198.5,173.5C 199.167,173.833 199.833,174.167 200.5,174.5C 200.291,175.086 199.957,175.586 199.5,176C 200.744,176.456 201.577,175.956 202,174.5C 202.21,176.058 202.71,177.391 203.5,178.5C 202.269,186.049 198.602,192.049 192.5,196.5C 192.207,195.357 192.207,194.023 192.5,192.5C 190.615,191.803 190.282,190.803 191.5,189.5C 189.615,188.803 189.282,187.803 190.5,186.5C 190.154,185.304 189.654,185.304 189,186.5C 188.383,185.551 188.549,184.718 189.5,184C 187.519,183.395 187.185,182.395 188.5,181C 187.833,180.667 187.167,180.333 186.5,180C 186.254,178.94 186.254,177.773 186.5,176.5C 186.154,175.304 185.654,175.304 185,176.5C 183.632,175.007 183.465,173.507 184.5,172C 182.431,171.676 182.098,170.842 183.5,169.5C 181.088,165.469 178.421,161.636 175.5,158C 176.451,157.282 176.617,156.449 176,155.5C 175.333,156.833 174.667,156.833 174,155.5C 173.243,153.685 172.41,152.019 171.5,150.5C 174.829,142.521 176.496,134.187 176.5,125.5 Z"/></g>
<g><path style="opacity:1" fill="#ef743c" d="M 32.5,153.5 C 33.0318,159.152 33.3651,164.819 33.5,170.5C 31.08,168.204 28.2467,166.537 25,165.5C 19.3663,165.673 13.8663,166.173 8.5,167C 4.7475,171.131 1.7475,174.964 -0.5,178.5C -0.5,174.5 -0.5,170.5 -0.5,166.5C 0.403972,165.791 0.737305,164.791 0.5,163.5C 1.55198,163.649 2.55198,163.483 3.5,163C 7.85538,158.983 12.522,155.316 17.5,152C 22.8403,151.464 27.8403,151.964 32.5,153.5 Z"/></g>
<g><path style="opacity:1" fill="#e24d5f" d="M 171.5,150.5 C 172.41,152.019 173.243,153.685 174,155.5C 174.667,156.833 175.333,156.833 176,155.5C 176.617,156.449 176.451,157.282 175.5,158C 178.421,161.636 181.088,165.469 183.5,169.5C 182.098,170.842 182.431,171.676 184.5,172C 183.465,173.507 183.632,175.007 185,176.5C 185.654,175.304 186.154,175.304 186.5,176.5C 186.254,177.773 186.254,178.94 186.5,180C 187.167,180.333 187.833,180.667 188.5,181C 187.185,182.395 187.519,183.395 189.5,184C 188.549,184.718 188.383,185.551 189,186.5C 189.654,185.304 190.154,185.304 190.5,186.5C 189.282,187.803 189.615,188.803 191.5,189.5C 190.282,190.803 190.615,191.803 192.5,192.5C 192.207,194.023 192.207,195.357 192.5,196.5C 190.054,199.231 187.054,201.231 183.5,202.5C 184.357,200.138 184.691,197.804 184.5,195.5C 182.615,194.803 182.282,193.803 183.5,192.5C 182.975,191.808 182.308,191.308 181.5,191C 182.451,190.282 182.617,189.449 182,188.5C 181.346,189.696 180.846,189.696 180.5,188.5C 180.833,187.833 181.167,187.167 181.5,186.5C 181.154,185.304 180.654,185.304 180,186.5C 178.505,184.89 178.339,183.224 179.5,181.5C 178.167,179.833 176.833,178.167 175.5,176.5C 175.833,175.833 176.167,175.167 176.5,174.5C 175.333,172.167 174.167,169.833 173,167.5C 172.333,166.167 171.667,166.167 171,167.5C 169.632,166.007 169.465,164.507 170.5,163C 169.672,161.008 168.339,159.508 166.5,158.5C 168.181,155.797 169.847,153.131 171.5,150.5 Z"/></g>
<g><path style="opacity:1" fill="#f0733b" d="M 101.5,205.5 C 94.3134,205.825 87.3134,205.491 80.5,204.5C 84.8461,204.666 89.1794,204.499 93.5,204C 91.5,203.667 89.5,203.333 87.5,203C 89.9022,201.529 89.7355,200.029 87,198.5C 85.3335,199.34 85.1669,198.84 86.5,197C 81.3333,190.5 75.5,184.667 69,179.5C 67.1598,180.833 66.6598,180.666 67.5,179C 65.5379,176.502 63.2046,175.502 60.5,176C 60.8333,175.667 61.1667,175.333 61.5,175C 60.4214,174.044 59.2547,173.211 58,172.5C 55.7284,172.562 53.5617,172.562 51.5,172.5C 50.5166,168.702 50.1832,164.702 50.5,160.5C 51.7498,160.423 52.5831,159.756 53,158.5C 53.3242,160.569 54.1575,160.902 55.5,159.5C 56.6956,159.846 56.6956,160.346 55.5,161C 59.094,163.332 62.7606,164.665 66.5,165C 65.1667,165.667 65.1667,166.333 66.5,167C 80,175.167 90.8333,186 99,199.5C 102.078,200.007 102.911,202.007 101.5,205.5 Z"/></g>
<g><path style="opacity:1" fill="#e45359" d="M 166.5,158.5 C 168.339,159.508 169.672,161.008 170.5,163C 169.465,164.507 169.632,166.007 171,167.5C 171.667,166.167 172.333,166.167 173,167.5C 174.167,169.833 175.333,172.167 176.5,174.5C 176.167,175.167 175.833,175.833 175.5,176.5C 176.833,178.167 178.167,179.833 179.5,181.5C 178.339,183.224 178.505,184.89 180,186.5C 180.654,185.304 181.154,185.304 181.5,186.5C 181.167,187.167 180.833,187.833 180.5,188.5C 180.846,189.696 181.346,189.696 182,188.5C 182.617,189.449 182.451,190.282 181.5,191C 182.308,191.308 182.975,191.808 183.5,192.5C 182.282,193.803 182.615,194.803 184.5,195.5C 184.691,197.804 184.357,200.138 183.5,202.5C 177.642,204.341 171.642,205.341 165.5,205.5C 164.737,204.732 163.737,204.232 162.5,204C 166.272,203.389 166.272,202.389 162.5,201C 162.64,199.403 162.64,197.903 162.5,196.5C 161.833,196.167 161.167,195.833 160.5,195.5C 161.902,194.158 161.569,193.324 159.5,193C 159.957,192.586 160.291,192.086 160.5,191.5C 159.833,191.167 159.167,190.833 158.5,190.5C 158.5,189.167 158.5,187.833 158.5,186.5C 156.276,185.256 154.61,182.923 153.5,179.5C 153.709,178.914 154.043,178.414 154.5,178C 153.207,175.948 152.207,173.781 151.5,171.5C 156.77,167.569 161.77,163.236 166.5,158.5 Z"/></g>
<g><path style="opacity:1" fill="#f27935" d="M 33.5,170.5 C 33.6159,173.86 33.9492,177.193 34.5,180.5C 25.5858,178.671 16.5858,178.171 7.5,179C 5.41599,179.778 3.58265,180.945 2,182.5C 1.66667,181.833 1.33333,181.167 1,180.5C 0.801916,182.382 0.301916,184.048 -0.5,185.5C -0.5,183.167 -0.5,180.833 -0.5,178.5C 1.7475,174.964 4.7475,171.131 8.5,167C 13.8663,166.173 19.3663,165.673 25,165.5C 28.2467,166.537 31.08,168.204 33.5,170.5 Z"/></g>
<g><path style="opacity:1" fill="#ed6c40" d="M 50.5,140.5 C 51.2344,141.878 51.9011,143.378 52.5,145C 53.4491,145.617 54.2825,145.451 55,144.5C 55.3242,146.569 56.1575,146.902 57.5,145.5C 57.8333,146.167 58.1667,146.833 58.5,147.5C 59.086,147.291 59.586,146.957 60,146.5C 61,147.5 62,148.5 63,149.5C 63.414,149.043 63.914,148.709 64.5,148.5C 89.9985,161.971 108.332,180.971 119.5,205.5C 113.5,205.5 107.5,205.5 101.5,205.5C 102.911,202.007 102.078,200.007 99,199.5C 90.8333,186 80,175.167 66.5,167C 65.1667,166.333 65.1667,165.667 66.5,165C 62.7606,164.665 59.094,163.332 55.5,161C 56.6956,160.346 56.6956,159.846 55.5,159.5C 54.1575,160.902 53.3242,160.569 53,158.5C 52.5831,159.756 51.7498,160.423 50.5,160.5C 50.5,160.167 50.5,159.833 50.5,159.5C 50.5,153.167 50.5,146.833 50.5,140.5 Z"/></g>
<g><path style="opacity:1" fill="#f27937" d="M 80.5,204.5 C 62.4913,201.488 52.8247,190.821 51.5,172.5C 53.5617,172.562 55.7284,172.562 58,172.5C 59.2547,173.211 60.4214,174.044 61.5,175C 61.1667,175.333 60.8333,175.667 60.5,176C 63.2046,175.502 65.5379,176.502 67.5,179C 66.6598,180.666 67.1598,180.833 69,179.5C 75.5,184.667 81.3333,190.5 86.5,197C 85.1669,198.84 85.3335,199.34 87,198.5C 89.7355,200.029 89.9022,201.529 87.5,203C 89.5,203.333 91.5,203.667 93.5,204C 89.1794,204.499 84.8461,204.666 80.5,204.5 Z"/></g>
<g><path style="opacity:0.993" fill="#dd3e6f" d="M 222.5,170.5 C 223.165,172.369 223.831,174.369 224.5,176.5C 226.529,175.371 226.863,175.871 225.5,178C 227.689,178.677 228.022,179.844 226.5,181.5C 227.167,181.833 227.833,182.167 228.5,182.5C 227.674,183.451 227.508,184.451 228,185.5C 228.654,184.304 229.154,184.304 229.5,185.5C 229.167,186.167 228.833,186.833 228.5,187.5C 229.167,187.833 229.833,188.167 230.5,188.5C 230.069,189.293 229.735,190.127 229.5,191C 229.892,192.011 230.559,192.511 231.5,192.5C 231.069,193.293 230.735,194.127 230.5,195C 230.892,196.011 231.559,196.511 232.5,196.5C 232.069,197.293 231.735,198.127 231.5,199C 231.892,200.011 232.559,200.511 233.5,200.5C 232.03,202.482 232.364,204.148 234.5,205.5C 233.178,207.557 233.511,209.39 235.5,211C 235.167,212 234.833,213 234.5,214C 235.482,214.381 236.148,215.214 236.5,216.5C 236.167,217.833 235.833,219.167 235.5,220.5C 236.167,221.5 236.833,222.5 237.5,223.5C 235.872,227.416 236.205,231.083 238.5,234.5C 237.352,236.149 236.019,237.649 234.5,239C 234.728,239.399 235.062,239.565 235.5,239.5C 235.5,239.833 235.5,240.167 235.5,240.5C 234.833,240.5 234.5,240.833 234.5,241.5C 233.833,241.5 233.5,241.833 233.5,242.5C 232.833,242.5 232.5,242.833 232.5,243.5C 231.833,243.5 231.167,243.5 230.5,243.5C 229.811,242.226 228.977,242.226 228,243.5C 227.746,239.097 227.913,234.93 228.5,231C 227.833,230.667 227.167,230.333 226.5,230C 226.212,227.978 226.546,225.811 227.5,223.5C 227.278,221.945 226.611,220.611 225.5,219.5C 225.5,216.5 225.5,213.5 225.5,210.5C 223.599,209.065 223.266,207.398 224.5,205.5C 222.458,204.497 222.125,203.163 223.5,201.5C 221.458,200.497 221.125,199.163 222.5,197.5C 220.458,196.497 220.125,195.163 221.5,193.5C 221.185,191.517 220.185,190.184 218.5,189.5C 219.856,183.047 221.189,176.713 222.5,170.5 Z"/></g>
<g><path style="opacity:0.996" fill="#db3a76" d="M 222.5,94.5 C 223.482,97.9619 223.815,101.629 223.5,105.5C 223.457,116.191 223.957,126.857 225,137.5C 226.113,138.76 226.28,139.927 225.5,141C 227.301,141.317 227.634,141.984 226.5,143C 228.301,143.317 228.634,143.984 227.5,145C 229.301,145.317 229.634,145.984 228.5,147C 230.301,147.317 230.634,147.984 229.5,149C 231.532,150.847 233.199,153.514 234.5,157C 234.167,157.333 233.833,157.667 233.5,158C 235.917,159.144 236.584,160.81 235.5,163C 237.032,163.7 238.032,164.866 238.5,166.5C 237.282,167.803 237.615,168.803 239.5,169.5C 238.282,170.803 238.615,171.803 240.5,172.5C 239.282,173.803 239.615,174.803 241.5,175.5C 240.282,176.803 240.615,177.803 242.5,178.5C 241.282,179.803 241.615,180.803 243.5,181.5C 242.529,182.962 242.862,184.295 244.5,185.5C 243.282,186.803 243.615,187.803 245.5,188.5C 246.131,190.478 246.131,192.645 245.5,195C 247.592,195.953 247.925,197.286 246.5,199C 247.279,201.628 248.279,204.294 249.5,207C 249.355,207.772 249.022,208.439 248.5,209C 250.787,210.427 251.12,212.261 249.5,214.5C 249.97,215.463 250.637,215.463 251.5,214.5C 251.5,215.167 251.5,215.833 251.5,216.5C 250.596,217.209 250.263,218.209 250.5,219.5C 249.662,219.842 249.328,220.508 249.5,221.5C 248.326,222.514 247.66,223.847 247.5,225.5C 246.662,225.842 246.328,226.508 246.5,227.5C 245.662,227.842 245.328,228.508 245.5,229.5C 244.833,229.5 244.5,229.833 244.5,230.5C 243.662,230.842 243.328,231.508 243.5,232.5C 242.833,232.5 242.5,232.833 242.5,233.5C 241.833,233.5 241.5,233.833 241.5,234.5C 240.833,234.5 240.5,234.833 240.5,235.5C 238.833,236.833 237.167,238.167 235.5,239.5C 235.062,239.565 234.728,239.399 234.5,239C 236.019,237.649 237.352,236.149 238.5,234.5C 236.205,231.083 235.872,227.416 237.5,223.5C 236.833,222.5 236.167,221.5 235.5,220.5C 235.833,219.167 236.167,217.833 236.5,216.5C 236.148,215.214 235.482,214.381 234.5,214C 234.833,213 235.167,212 235.5,211C 233.511,209.39 233.178,207.557 234.5,205.5C 232.364,204.148 232.03,202.482 233.5,200.5C 232.559,200.511 231.892,200.011 231.5,199C 231.735,198.127 232.069,197.293 232.5,196.5C 231.559,196.511 230.892,196.011 230.5,195C 230.735,194.127 231.069,193.293 231.5,192.5C 230.559,192.511 229.892,192.011 229.5,191C 229.735,190.127 230.069,189.293 230.5,188.5C 229.833,188.167 229.167,187.833 228.5,187.5C 228.833,186.833 229.167,186.167 229.5,185.5C 229.154,184.304 228.654,184.304 228,185.5C 227.508,184.451 227.674,183.451 228.5,182.5C 227.833,182.167 227.167,181.833 226.5,181.5C 228.022,179.844 227.689,178.677 225.5,178C 226.863,175.871 226.529,175.371 224.5,176.5C 223.831,174.369 223.165,172.369 222.5,170.5C 222.5,145.167 222.5,119.833 222.5,94.5 Z"/></g>
<g><path style="opacity:1" fill="#e9614d" d="M 122.5,176.5 C 127.167,176.5 131.833,176.5 136.5,176.5C 139.389,176.999 140.056,178.499 138.5,181C 140.127,183.754 141.627,186.588 143,189.5C 145.109,190.035 145.609,191.035 144.5,192.5C 145.167,192.833 145.833,193.167 146.5,193.5C 145.098,194.842 145.431,195.676 147.5,196C 147.043,196.414 146.709,196.914 146.5,197.5C 147.167,197.833 147.833,198.167 148.5,198.5C 147.098,199.842 147.431,200.676 149.5,201C 149.5,202 149.5,203 149.5,204C 151.708,204.191 153.708,204.691 155.5,205.5C 151.5,205.5 147.5,205.5 143.5,205.5C 139.018,204.674 134.351,204.174 129.5,204C 131.577,203.808 133.577,203.308 135.5,202.5C 135.154,201.304 134.654,201.304 134,202.5C 133.5,201.5 133,200.5 132.5,199.5C 133.902,198.158 133.569,197.324 131.5,197C 132.175,194.758 131.675,192.591 130,190.5C 126.754,188.991 125.421,186.657 126,183.5C 124.745,182.789 123.579,181.956 122.5,181C 122.966,179.701 122.966,178.201 122.5,176.5 Z"/></g>
<g><path style="opacity:0.987" fill="#f4802f" d="M 34.5,180.5 C 36.0228,186.722 38.3561,192.722 41.5,198.5C 40.7784,198.918 40.2784,199.584 40,200.5C 39,199.167 38,199.167 37,200.5C 35.3627,199.167 34.5293,197.834 34.5,196.5C 33.8333,196.833 33.1667,197.167 32.5,197.5C 31.3044,197.154 31.3044,196.654 32.5,196C 31.451,195.508 30.451,195.674 29.5,196.5C 28.3044,196.154 28.3044,195.654 29.5,195C 27.6226,194.424 25.7892,194.591 24,195.5C 18.6667,192.833 13.3333,192.833 8,195.5C 7,195.167 6,194.833 5,194.5C 3.98945,194.892 3.48945,195.559 3.5,196.5C 2.74917,195.624 2.24917,194.624 2,193.5C 1.76791,194.737 1.26791,195.737 0.5,196.5C 0.166667,196.5 -0.166667,196.5 -0.5,196.5C -0.5,192.833 -0.5,189.167 -0.5,185.5C 0.301916,184.048 0.801916,182.382 1,180.5C 1.33333,181.167 1.66667,181.833 2,182.5C 3.58265,180.945 5.41599,179.778 7.5,179C 16.5858,178.171 25.5858,178.671 34.5,180.5 Z"/></g>
<g><path style="opacity:1" fill="#e75b52" d="M 151.5,171.5 C 152.207,173.781 153.207,175.948 154.5,178C 154.043,178.414 153.709,178.914 153.5,179.5C 154.61,182.923 156.276,185.256 158.5,186.5C 158.5,187.833 158.5,189.167 158.5,190.5C 159.167,190.833 159.833,191.167 160.5,191.5C 160.291,192.086 159.957,192.586 159.5,193C 161.569,193.324 161.902,194.158 160.5,195.5C 161.167,195.833 161.833,196.167 162.5,196.5C 162.64,197.903 162.64,199.403 162.5,201C 166.272,202.389 166.272,203.389 162.5,204C 163.737,204.232 164.737,204.732 165.5,205.5C 162.167,205.5 158.833,205.5 155.5,205.5C 153.708,204.691 151.708,204.191 149.5,204C 149.5,203 149.5,202 149.5,201C 147.431,200.676 147.098,199.842 148.5,198.5C 147.833,198.167 147.167,197.833 146.5,197.5C 146.709,196.914 147.043,196.414 147.5,196C 145.431,195.676 145.098,194.842 146.5,193.5C 145.833,193.167 145.167,192.833 144.5,192.5C 145.609,191.035 145.109,190.035 143,189.5C 141.627,186.588 140.127,183.754 138.5,181C 140.056,178.499 139.389,176.999 136.5,176.5C 141.341,174.664 146.341,172.997 151.5,171.5 Z"/></g>
<g><path style="opacity:0.984" fill="#f68628" d="M 41.5,198.5 C 45.4608,204.129 50.1275,209.129 55.5,213.5C 54.9569,213.56 54.6236,213.893 54.5,214.5C 56.4935,216.499 58.8268,217.999 61.5,219C 61.1667,219.333 60.8333,219.667 60.5,220C 61.5786,220.956 62.7453,221.789 64,222.5C 64.6172,223.449 64.4506,224.282 63.5,225C 64.1258,225.75 64.6258,226.584 65,227.5C 66.6665,226.66 66.8331,227.16 65.5,229C 67.5689,229.324 67.9023,230.158 66.5,231.5C 67.1667,231.833 67.8333,232.167 68.5,232.5C 68.1667,233.167 67.8333,233.833 67.5,234.5C 68.4136,236.629 69.4136,238.796 70.5,241C 69.3849,244.892 69.3849,248.725 70.5,252.5C 73.7848,253.324 77.1182,253.824 80.5,254C 76.6437,254.177 72.977,254.677 69.5,255.5C 65.8333,255.5 62.1667,255.5 58.5,255.5C 58.1583,254.662 57.4916,254.328 56.5,254.5C 57.9516,253.698 59.6183,253.198 61.5,253C 60.2068,252.51 58.8734,252.343 57.5,252.5C 57.8913,229.458 46.558,214.792 23.5,208.5C 16.6598,209.51 10.1598,209.51 4,208.5C 3.72158,209.416 3.22158,210.082 2.5,210.5C 2.5,209.833 2.16667,209.5 1.5,209.5C 1.78448,207.585 1.45115,205.919 0.5,204.5C 0.5,201.833 0.5,199.167 0.5,196.5C 1.26791,195.737 1.76791,194.737 2,193.5C 2.24917,194.624 2.74917,195.624 3.5,196.5C 3.48945,195.559 3.98945,194.892 5,194.5C 6,194.833 7,195.167 8,195.5C 13.3333,192.833 18.6667,192.833 24,195.5C 25.7892,194.591 27.6226,194.424 29.5,195C 28.3044,195.654 28.3044,196.154 29.5,196.5C 30.451,195.674 31.451,195.508 32.5,196C 31.3044,196.654 31.3044,197.154 32.5,197.5C 33.1667,197.167 33.8333,196.833 34.5,196.5C 34.5293,197.834 35.3627,199.167 37,200.5C 38,199.167 39,199.167 40,200.5C 40.2784,199.584 40.7784,198.918 41.5,198.5 Z"/></g>
<g><path style="opacity:0.985" fill="#df4169" d="M 218.5,189.5 C 220.185,190.184 221.185,191.517 221.5,193.5C 220.125,195.163 220.458,196.497 222.5,197.5C 221.125,199.163 221.458,200.497 223.5,201.5C 222.125,203.163 222.458,204.497 224.5,205.5C 223.266,207.398 223.599,209.065 225.5,210.5C 225.5,213.5 225.5,216.5 225.5,219.5C 226.611,220.611 227.278,221.945 227.5,223.5C 226.546,225.811 226.212,227.978 226.5,230C 227.167,230.333 227.833,230.667 228.5,231C 227.913,234.93 227.746,239.097 228,243.5C 228.977,242.226 229.811,242.226 230.5,243.5C 230.5,243.833 230.5,244.167 230.5,244.5C 229.833,244.5 229.5,244.833 229.5,245.5C 228.508,245.328 227.842,245.662 227.5,246.5C 226.508,246.328 225.842,246.662 225.5,247.5C 223.847,247.66 222.514,248.326 221.5,249.5C 220.508,249.328 219.842,249.662 219.5,250.5C 218.209,250.263 217.209,250.596 216.5,251.5C 215.833,251.5 215.167,251.5 214.5,251.5C 214.475,248.381 214.809,245.215 215.5,242C 214.833,241.667 214.167,241.333 213.5,241C 213.47,237.9 213.803,234.733 214.5,231.5C 212.746,228.772 212.412,225.939 213.5,223C 211.466,220.901 211.132,218.568 212.5,216C 210.511,214.39 210.178,212.557 211.5,210.5C 209.824,208.577 209.49,206.244 210.5,203.5C 213.702,199.092 216.368,194.425 218.5,189.5 Z"/></g>
<g><path style="opacity:0.009" fill="#f68727" d="M -0.5,204.5 C -0.166667,204.5 0.166667,204.5 0.5,204.5C 0.767809,206.099 0.434475,207.432 -0.5,208.5C -0.5,207.167 -0.5,205.833 -0.5,204.5 Z"/></g>
<g><path style="opacity:0.009" fill="#d93378" d="M 254.5,204.5 C 254.833,204.5 255.167,204.5 255.5,204.5C 255.5,205.833 255.5,207.167 255.5,208.5C 254.566,207.432 254.232,206.099 254.5,204.5 Z"/></g>
<g><path style="opacity:0.977" fill="#f88b23" d="M 56.5,254.5 C 54.5,254.5 52.5,254.5 50.5,254.5C 49.4324,253.566 48.099,253.232 46.5,253.5C 47.9516,252.698 49.6183,252.198 51.5,252C 50.2068,251.51 48.8734,251.343 47.5,251.5C 46.9227,231.086 36.4227,219.753 16,217.5C 12.5221,218.329 9.02215,218.996 5.5,219.5C 4.83333,218.5 4.16667,217.5 3.5,216.5C 3.73731,215.209 3.40397,214.209 2.5,213.5C 2.5,212.5 2.5,211.5 2.5,210.5C 3.22158,210.082 3.72158,209.416 4,208.5C 10.1598,209.51 16.6598,209.51 23.5,208.5C 46.558,214.792 57.8913,229.458 57.5,252.5C 58.8734,252.343 60.2068,252.51 61.5,253C 59.6183,253.198 57.9516,253.698 56.5,254.5 Z"/></g>
<g><path style="opacity:0.009" fill="#d93277" d="M 253.5,209.5 C 254.573,210.251 254.74,211.251 254,212.5C 253.517,211.552 253.351,210.552 253.5,209.5 Z"/></g>
<g><path style="opacity:0.016" fill="#f78a25" d="M 1.5,209.5 C 1.64945,210.552 1.48278,211.552 1,212.5C 0.259877,211.251 0.426544,210.251 1.5,209.5 Z"/></g>
<g><path style="opacity:0.012" fill="#f88b23" d="M 2.5,213.5 C 2.63101,214.239 2.46434,214.906 2,215.5C 1.30831,214.563 1.47498,213.897 2.5,213.5 Z"/></g>
<g><path style="opacity:0.985" fill="#e14863" d="M 210.5,203.5 C 209.49,206.244 209.824,208.577 211.5,210.5C 210.178,212.557 210.511,214.39 212.5,216C 211.132,218.568 211.466,220.901 213.5,223C 212.412,225.939 212.746,228.772 214.5,231.5C 213.803,234.733 213.47,237.9 213.5,241C 214.167,241.333 214.833,241.667 215.5,242C 214.809,245.215 214.475,248.381 214.5,251.5C 213.833,251.5 213.5,251.833 213.5,252.5C 211.901,252.232 210.568,252.566 209.5,253.5C 207.585,253.216 205.919,253.549 204.5,254.5C 203.167,254.5 201.833,254.5 200.5,254.5C 201.406,248.94 201.739,243.44 201.5,238C 200.833,237.667 200.167,237.333 199.5,237C 199.371,234.584 199.704,232.084 200.5,229.5C 198.567,227.205 198.234,224.705 199.5,222C 197.093,219.908 197.093,217.908 199.5,216C 198.552,215.517 197.552,215.351 196.5,215.5C 201.579,211.963 206.246,207.963 210.5,203.5 Z"/></g>
<g><path style="opacity:0.012" fill="#d93475" d="M 252.5,213.5 C 253.525,213.897 253.692,214.563 253,215.5C 252.536,214.906 252.369,214.239 252.5,213.5 Z"/></g>
<g><path style="opacity:0.01" fill="#f88c22" d="M 3.5,216.5 C 3.63101,217.239 3.46434,217.906 3,218.5C 2.30831,217.563 2.47498,216.897 3.5,216.5 Z"/></g>
<g><path style="opacity:0.012" fill="#da3476" d="M 251.5,216.5 C 252.525,216.897 252.692,217.563 252,218.5C 251.536,217.906 251.369,217.239 251.5,216.5 Z"/></g>
<g><path style="opacity:1" fill="#f4802e" d="M 55.5,213.5 C 63.8581,218.286 72.8581,221.286 82.5,222.5C 86.0029,232.518 87.6696,242.851 87.5,253.5C 88.8734,253.343 90.2068,253.51 91.5,254C 89.9419,254.21 88.6085,254.71 87.5,255.5C 81.5,255.5 75.5,255.5 69.5,255.5C 72.977,254.677 76.6437,254.177 80.5,254C 77.1182,253.824 73.7848,253.324 70.5,252.5C 69.3849,248.725 69.3849,244.892 70.5,241C 69.4136,238.796 68.4136,236.629 67.5,234.5C 67.8333,233.833 68.1667,233.167 68.5,232.5C 67.8333,232.167 67.1667,231.833 66.5,231.5C 67.9023,230.158 67.5689,229.324 65.5,229C 66.8331,227.16 66.6665,226.66 65,227.5C 64.6258,226.584 64.1258,225.75 63.5,225C 64.4506,224.282 64.6172,223.449 64,222.5C 62.7453,221.789 61.5786,220.956 60.5,220C 60.8333,219.667 61.1667,219.333 61.5,219C 58.8268,217.999 56.4935,216.499 54.5,214.5C 54.6236,213.893 54.9569,213.56 55.5,213.5 Z"/></g>
<g><path style="opacity:0.977" fill="#e34f5d" d="M 196.5,215.5 C 197.552,215.351 198.552,215.517 199.5,216C 197.093,217.908 197.093,219.908 199.5,222C 198.234,224.705 198.567,227.205 200.5,229.5C 199.704,232.084 199.371,234.584 199.5,237C 200.167,237.333 200.833,237.667 201.5,238C 201.739,243.44 201.406,248.94 200.5,254.5C 198.901,254.232 197.568,254.566 196.5,255.5C 192.5,255.5 188.5,255.5 184.5,255.5C 184.918,254.778 185.584,254.278 186.5,254C 185.806,249.532 185.14,245.032 184.5,240.5C 185.668,239.094 185.335,237.928 183.5,237C 184.767,232.534 184.767,228.034 183.5,223.5C 182.995,222.081 181.995,221.415 180.5,221.5C 185.825,219.722 191.158,217.722 196.5,215.5 Z"/></g>
<g><path style="opacity:0.01" fill="#da3475" d="M 250.5,219.5 C 251.833,220.167 251.833,220.833 250.5,221.5C 250.5,220.833 250.5,220.167 250.5,219.5 Z"/></g>
<g><path style="opacity:0.991" fill="#fa8e20" d="M 46.5,253.5 C 46.1667,253.5 45.8333,253.5 45.5,253.5C 44.4324,252.566 43.099,252.232 41.5,252.5C 40.791,251.596 39.791,251.263 38.5,251.5C 37.791,250.596 36.791,250.263 35.5,250.5C 33.1515,248.659 30.4848,247.326 27.5,246.5C 20.1667,241.167 13.8333,234.833 8.5,227.5C 8.57298,225.973 7.90632,224.973 6.5,224.5C 6.73731,223.209 6.40397,222.209 5.5,221.5C 5.5,220.833 5.5,220.167 5.5,219.5C 9.02215,218.996 12.5221,218.329 16,217.5C 36.4227,219.753 46.9227,231.086 47.5,251.5C 48.8734,251.343 50.2068,251.51 51.5,252C 49.6183,252.198 47.9516,252.698 46.5,253.5 Z"/></g>
<g><path style="opacity:0.008" fill="#f98d21" d="M 5.5,221.5 C 5.63101,222.239 5.46434,222.906 5,223.5C 4.30831,222.563 4.47498,221.897 5.5,221.5 Z"/></g>
<g><path style="opacity:0.008" fill="#da3575" d="M 249.5,221.5 C 249.833,221.5 250.167,221.5 250.5,221.5C 250.167,224.167 249.833,224.167 249.5,221.5 Z"/></g>
<g><path style="opacity:0.999" fill="#e65557" d="M 180.5,221.5 C 181.995,221.415 182.995,222.081 183.5,223.5C 184.767,228.034 184.767,232.534 183.5,237C 185.335,237.928 185.668,239.094 184.5,240.5C 185.14,245.032 185.806,249.532 186.5,254C 185.584,254.278 184.918,254.778 184.5,255.5C 180.167,255.5 175.833,255.5 171.5,255.5C 171.082,254.778 170.416,254.278 169.5,254C 170.54,247.857 171.206,241.857 171.5,236C 170.833,235.667 170.167,235.333 169.5,235C 169.314,233.133 169.647,231.133 170.5,229C 170.241,227.739 169.574,226.739 168.5,226C 169.167,225.667 169.833,225.333 170.5,225C 168.655,223.872 166.655,223.372 164.5,223.5C 169.633,222.335 174.966,221.668 180.5,221.5 Z"/></g>
<g><path style="opacity:0.997" fill="#f27934" d="M 82.5,222.5 C 84.6208,222.325 86.6208,222.659 88.5,223.5C 91.322,224.507 94.322,225.34 97.5,226C 96.3318,227.406 96.6652,228.572 98.5,229.5C 97.2655,231.398 97.5989,233.065 99.5,234.5C 99.0688,235.293 98.7355,236.127 98.5,237C 99.3943,238.396 100.061,239.896 100.5,241.5C 99.6149,246.122 99.2816,250.789 99.5,255.5C 95.5,255.5 91.5,255.5 87.5,255.5C 88.6085,254.71 89.9419,254.21 91.5,254C 90.2068,253.51 88.8734,253.343 87.5,253.5C 87.6696,242.851 86.0029,232.518 82.5,222.5 Z"/></g>
<g><path style="opacity:0.012" fill="#f98e20" d="M 6.5,224.5 C 5.83333,225.167 5.83333,225.167 6.5,224.5 Z"/></g>
<g><path style="opacity:0.999" fill="#f07339" d="M 88.5,223.5 C 95.1667,223.5 101.833,223.5 108.5,223.5C 108.881,224.931 109.881,225.764 111.5,226C 110.332,227.406 110.665,228.572 112.5,229.5C 111.404,231.513 111.737,233.346 113.5,235C 112.7,236.788 112.366,238.455 112.5,240C 113.167,240.333 113.833,240.667 114.5,241C 114.391,245.622 114.391,250.455 114.5,255.5C 109.5,255.5 104.5,255.5 99.5,255.5C 99.2816,250.789 99.6149,246.122 100.5,241.5C 100.061,239.896 99.3943,238.396 98.5,237C 98.7355,236.127 99.0688,235.293 99.5,234.5C 97.5989,233.065 97.2655,231.398 98.5,229.5C 96.6652,228.572 96.3318,227.406 97.5,226C 94.322,225.34 91.322,224.507 88.5,223.5 Z"/></g>
<g><path style="opacity:0.999" fill="#eb6546" d="M 128.5,223.5 C 135.167,223.5 141.833,223.5 148.5,223.5C 148.5,223.833 148.5,224.167 148.5,224.5C 145.813,224.336 143.146,224.503 140.5,225C 142.787,226.427 143.12,228.261 141.5,230.5C 142.611,231.611 143.278,232.945 143.5,234.5C 142.704,237.084 142.371,239.584 142.5,242C 143.167,242.333 143.833,242.667 144.5,243C 143.639,247.282 143.306,251.448 143.5,255.5C 139.833,255.5 136.167,255.5 132.5,255.5C 131.51,250.287 131.51,245.287 132.5,240.5C 132.151,238.624 131.484,237.124 130.5,236C 130.706,234.634 131.04,233.301 131.5,232C 130.535,229.004 129.535,226.171 128.5,223.5 Z"/></g>
<g><path style="opacity:0.999" fill="#e9604c" d="M 148.5,224.5 C 154.696,223.36 157.029,225.693 155.5,231.5C 156.28,232.949 156.946,234.449 157.5,236C 156.991,241.788 156.991,247.621 157.5,253.5C 158.552,253.351 159.552,253.517 160.5,254C 159.263,254.232 158.263,254.732 157.5,255.5C 152.833,255.5 148.167,255.5 143.5,255.5C 143.306,251.448 143.639,247.282 144.5,243C 143.833,242.667 143.167,242.333 142.5,242C 142.371,239.584 142.704,237.084 143.5,234.5C 143.278,232.945 142.611,231.611 141.5,230.5C 143.12,228.261 142.787,226.427 140.5,225C 143.146,224.503 145.813,224.336 148.5,224.5 Z"/></g>
<g><path style="opacity:0.012" fill="#da3673" d="M 248.5,224.5 C 249.833,225.167 249.833,225.167 248.5,224.5 Z"/></g>
<g><path style="opacity:1" fill="#ed6b41" d="M 108.5,223.5 C 115.167,223.5 121.833,223.5 128.5,223.5C 129.535,226.171 130.535,229.004 131.5,232C 131.04,233.301 130.706,234.634 130.5,236C 131.484,237.124 132.151,238.624 132.5,240.5C 131.51,245.287 131.51,250.287 132.5,255.5C 126.5,255.5 120.5,255.5 114.5,255.5C 114.391,250.455 114.391,245.622 114.5,241C 113.833,240.667 113.167,240.333 112.5,240C 112.366,238.455 112.7,236.788 113.5,235C 111.737,233.346 111.404,231.513 112.5,229.5C 110.665,228.572 110.332,227.406 111.5,226C 109.881,225.764 108.881,224.931 108.5,223.5 Z"/></g>
<g><path style="opacity:0.006" fill="#da3673" d="M 247.5,225.5 C 247.833,225.5 248.167,225.5 248.5,225.5C 248.672,226.492 248.338,227.158 247.5,227.5C 247.5,226.833 247.5,226.167 247.5,225.5 Z"/></g>
<g><path style="opacity:0.012" fill="#f88f1f" d="M 7.5,227.5 C 6.83333,226.167 6.83333,226.167 7.5,227.5 Z"/></g>
<g><path style="opacity:0.008" fill="#db3673" d="M 246.5,227.5 C 246.833,227.5 247.167,227.5 247.5,227.5C 247.672,228.492 247.338,229.158 246.5,229.5C 246.5,228.833 246.5,228.167 246.5,227.5 Z"/></g>
<g><path style="opacity:0.004" fill="#f98e20" d="M 7.5,227.5 C 7.83333,227.5 8.16667,227.5 8.5,227.5C 8.16667,230.167 7.83333,230.167 7.5,227.5 Z"/></g>
<g><path style="opacity:0.012" fill="#db3772" d="M 245.5,229.5 C 245.833,229.5 246.167,229.5 246.5,229.5C 246.315,230.17 245.981,230.17 245.5,229.5 Z"/></g>
<g><path style="opacity:0.008" fill="#db3772" d="M 244.5,230.5 C 244.833,230.5 245.167,230.5 245.5,230.5C 245.672,231.492 245.338,232.158 244.5,232.5C 244.5,231.833 244.5,231.167 244.5,230.5 Z"/></g>
<g><path style="opacity:0.008" fill="#db3871" d="M 243.5,232.5 C 243.833,232.5 244.167,232.5 244.5,232.5C 244.315,233.17 243.981,233.17 243.5,232.5 Z"/></g>
<g><path style="opacity:0.016" fill="#da3871" d="M 242.5,233.5 C 242.833,233.5 243.167,233.5 243.5,233.5C 243.315,234.17 242.981,234.17 242.5,233.5 Z"/></g>
<g><path style="opacity:0.012" fill="#db3971" d="M 241.5,234.5 C 241.833,234.5 242.167,234.5 242.5,234.5C 242.315,235.17 241.981,235.17 241.5,234.5 Z"/></g>
<g><path style="opacity:0.993" fill="#e75a51" d="M 148.5,224.5 C 148.5,224.167 148.5,223.833 148.5,223.5C 153.833,223.5 159.167,223.5 164.5,223.5C 166.655,223.372 168.655,223.872 170.5,225C 169.833,225.333 169.167,225.667 168.5,226C 169.574,226.739 170.241,227.739 170.5,229C 169.647,231.133 169.314,233.133 169.5,235C 170.167,235.333 170.833,235.667 171.5,236C 171.206,241.857 170.54,247.857 169.5,254C 170.416,254.278 171.082,254.778 171.5,255.5C 166.833,255.5 162.167,255.5 157.5,255.5C 158.263,254.732 159.263,254.232 160.5,254C 159.552,253.517 158.552,253.351 157.5,253.5C 156.991,247.621 156.991,241.788 157.5,236C 156.946,234.449 156.28,232.949 155.5,231.5C 157.029,225.693 154.696,223.36 148.5,224.5 Z"/></g>
<g><path style="opacity:0.008" fill="#db396f" d="M 240.5,235.5 C 240.833,235.5 241.167,235.5 241.5,235.5C 241.315,236.17 240.981,236.17 240.5,235.5 Z"/></g>
<g><path style="opacity:0.008" fill="#db3c6e" d="M 235.5,240.5 C 236.833,241.167 236.833,241.167 235.5,240.5 Z"/></g>
<g><path style="opacity:0.016" fill="#dc3c6e" d="M 234.5,241.5 C 234.833,241.5 235.167,241.5 235.5,241.5C 235.315,242.17 234.981,242.17 234.5,241.5 Z"/></g>
<g><path style="opacity:0.016" fill="#dc3d6d" d="M 233.5,242.5 C 233.833,242.5 234.167,242.5 234.5,242.5C 234.315,243.17 233.981,243.17 233.5,242.5 Z"/></g>
<g><path style="opacity:0.008" fill="#dd3d6d" d="M 232.5,243.5 C 232.833,243.5 233.167,243.5 233.5,243.5C 233.315,244.17 232.981,244.17 232.5,243.5 Z"/></g>
<g><path style="opacity:0.008" fill="#dd3d6d" d="M 230.5,245.5 C 230.5,245.167 230.5,244.833 230.5,244.5C 231.167,244.5 231.833,244.5 232.5,244.5C 232.158,245.338 231.492,245.672 230.5,245.5 Z"/></g>
<g><path style="opacity:0.012" fill="#dd3e6c" d="M 229.5,245.5 C 229.833,245.5 230.167,245.5 230.5,245.5C 230.315,246.17 229.981,246.17 229.5,245.5 Z"/></g>
<g><path style="opacity:0.008" fill="#f98f20" d="M 27.5,246.5 C 27.5,246.833 27.5,247.167 27.5,247.5C 24.8333,247.167 24.8333,246.833 27.5,246.5 Z"/></g>
<g><path style="opacity:0.004" fill="#dd3e6c" d="M 227.5,247.5 C 227.5,247.167 227.5,246.833 227.5,246.5C 228.167,246.5 228.833,246.5 229.5,246.5C 229.158,247.338 228.492,247.672 227.5,247.5 Z"/></g>
<g><path style="opacity:0.012" fill="#f98e1f" d="M 27.5,247.5 C 28.8333,248.167 28.8333,248.167 27.5,247.5 Z"/></g>
<g><path style="opacity:0.006" fill="#de406b" d="M 225.5,248.5 C 225.5,248.167 225.5,247.833 225.5,247.5C 226.167,247.5 226.833,247.5 227.5,247.5C 227.158,248.338 226.492,248.672 225.5,248.5 Z"/></g>
<g><path style="opacity:0.012" fill="#f98e1f" d="M 29.5,248.5 C 30.8333,249.167 30.8333,249.167 29.5,248.5 Z"/></g>
<g><path style="opacity:0.012" fill="#dd406a" d="M 225.5,248.5 C 224.833,249.167 224.833,249.167 225.5,248.5 Z"/></g>
<g><path style="opacity:0.008" fill="#de4169" d="M 221.5,250.5 C 221.5,250.167 221.5,249.833 221.5,249.5C 224.167,249.833 224.167,250.167 221.5,250.5 Z"/></g>
<g><path style="opacity:0.012" fill="#f98e1f" d="M 35.5,250.5 C 35.1034,251.525 34.4368,251.692 33.5,251C 34.0944,250.536 34.7611,250.369 35.5,250.5 Z"/></g>
<g><path style="opacity:0.01" fill="#de4269" d="M 219.5,250.5 C 220.167,250.5 220.833,250.5 221.5,250.5C 220.833,251.833 220.167,251.833 219.5,250.5 Z"/></g>
<g><path style="opacity:0.008" fill="#f98f20" d="M 38.5,251.5 C 38.1034,252.525 37.4368,252.692 36.5,252C 37.0944,251.536 37.7611,251.369 38.5,251.5 Z"/></g>
<g><path style="opacity:0.01" fill="#df4367" d="M 216.5,251.5 C 217.239,251.369 217.906,251.536 218.5,252C 217.563,252.692 216.897,252.525 216.5,251.5 Z"/></g>
<g><path style="opacity:0.012" fill="#f98f20" d="M 41.5,252.5 C 41.1034,253.525 40.4368,253.692 39.5,253C 40.0944,252.536 40.7611,252.369 41.5,252.5 Z"/></g>
<g><path style="opacity:0.012" fill="#df4566" d="M 213.5,252.5 C 214.239,252.369 214.906,252.536 215.5,253C 214.563,253.692 213.897,253.525 213.5,252.5 Z"/></g>
<g><path style="opacity:0.01" fill="#f98e1f" d="M 45.5,253.5 C 44.7494,254.573 43.7494,254.74 42.5,254C 43.448,253.517 44.448,253.351 45.5,253.5 Z"/></g>
<g><path style="opacity:0.012" fill="#e04565" d="M 209.5,253.5 C 210.552,253.351 211.552,253.517 212.5,254C 211.251,254.74 210.251,254.573 209.5,253.5 Z"/></g>
<g><path style="opacity:0.01" fill="#f88d21" d="M 46.5,255.5 C 47.5676,254.566 48.901,254.232 50.5,254.5C 50.5,254.833 50.5,255.167 50.5,255.5C 49.1667,255.5 47.8333,255.5 46.5,255.5 Z"/></g>
<g><path style="opacity:0.01" fill="#e14863" d="M 204.5,255.5 C 204.5,255.167 204.5,254.833 204.5,254.5C 206.099,254.232 207.432,254.566 208.5,255.5C 207.167,255.5 205.833,255.5 204.5,255.5 Z"/></g>
</svg>
