<?xml version="1.0" encoding="UTF-8"?>
<!DOCTYPE svg PUBLIC "-//W3C//DTD SVG 1.1//EN" "http://www.w3.org/Graphics/SVG/1.1/DTD/svg11.dtd">
<svg xmlns="http://www.w3.org/2000/svg" version="1.1" width="256px" height="256px" style="shape-rendering:geometricPrecision; text-rendering:geometricPrecision; image-rendering:optimizeQuality; fill-rule:evenodd; clip-rule:evenodd" xmlns:xlink="http://www.w3.org/1999/xlink">
<g><path style="opacity:0.989" fill="#0b7bba" d="M 115.5,2.5 C 166.883,0.107341 206.716,20.1073 235,62.5C 253.343,94.3081 257.676,127.975 248,163.5C 230.123,216.038 193.623,245.871 138.5,253C 87.4844,255.576 47.9844,235.743 20,193.5C 1.65957,161.655 -2.67376,127.989 7,92.5C 24.8917,40.4396 61.0583,10.4396 115.5,2.5 Z"/></g>
<g><path style="opacity:1" fill="#eeeff1" d="M 73.5,56.5 C 88.837,54.6806 96.337,61.3473 96,76.5C 90.5346,86.4784 82.368,89.6451 71.5,86C 58.9244,75.2113 59.5911,65.378 73.5,56.5 Z"/></g>
<g><path style="opacity:1" fill="#f0f1f1" d="M 160.5,97.5 C 184.105,95.6148 197.939,106.281 202,129.5C 202.5,149.497 202.667,169.497 202.5,189.5C 192.5,189.5 182.5,189.5 172.5,189.5C 172.667,171.164 172.5,152.83 172,134.5C 170.692,125.856 165.692,121.523 157,121.5C 148.846,121.645 143.513,125.645 141,133.5C 140.5,152.164 140.333,170.83 140.5,189.5C 130.833,189.5 121.167,189.5 111.5,189.5C 111.5,159.5 111.5,129.5 111.5,99.5C 121.167,99.5 130.833,99.5 140.5,99.5C 140.334,103.514 140.501,107.514 141,111.5C 146.036,104.606 152.536,99.9397 160.5,97.5 Z"/></g>
<g><path style="opacity:1" fill="#d9e5ec" d="M 94.5,100.5 C 84.8333,100.5 75.1667,100.5 65.5,100.5C 65.5,130.167 65.5,159.833 65.5,189.5C 64.5019,159.671 64.1686,129.671 64.5,99.5C 74.6806,99.1726 84.6806,99.506 94.5,100.5 Z"/></g>
<g><path style="opacity:1" fill="#f1f1f1" d="M 94.5,100.5 C 94.5,130.167 94.5,159.833 94.5,189.5C 84.8333,189.5 75.1667,189.5 65.5,189.5C 65.5,159.833 65.5,130.167 65.5,100.5C 75.1667,100.5 84.8333,100.5 94.5,100.5 Z"/></g>
</svg>
