<svg xmlns="http://www.w3.org/2000/svg" version="1.1" xmlns:xlink="http://www.w3.org/1999/xlink" xmlns:svgjs="http://svgjs.dev/svgjs" width="1000" height="623" viewBox="0 0 1000 623"><g transform="matrix(1,0,0,1,-0.6060606060606233,0.2522267206477409)"><svg viewBox="0 0 396 247" data-background-color="#ffffff" preserveAspectRatio="xMidYMid meet" height="623" width="1000" xmlns="http://www.w3.org/2000/svg" xmlns:xlink="http://www.w3.org/1999/xlink"><g id="tight-bounds" transform="matrix(1,0,0,1,0.2400000000000091,-0.09999999999999432)"><svg viewBox="0 0 395.52 247.2" height="247.2" width="395.52"><g><svg></svg></g><g><svg viewBox="0 0 395.52 247.2" height="247.2" width="395.52"><g transform="matrix(1,0,0,1,75.54432,97.46278526732672)"><svg viewBox="0 0 244.43135999999998 52.27442946534653" height="52.27442946534653" width="244.43135999999998"><g><svg viewBox="0 0 244.43135999999998 52.27442946534653" height="52.27442946534653" width="244.43135999999998"><g><svg viewBox="0 0 244.43135999999998 52.27442946534653" height="52.27442946534653" width="244.43135999999998"><g><svg viewBox="0 0 244.43135999999998 52.27442946534653" height="52.27442946534653" width="244.43135999999998"><g id="textblocktransform"><svg viewBox="0 0 244.43135999999998 52.27442946534653" height="52.27442946534653" width="244.43135999999998" id="textblock"><g><svg viewBox="0 0 244.43135999999998 52.27442946534653" height="52.27442946534653" width="244.43135999999998"><g transform="matrix(1,0,0,1,0,0)"><svg width="244.43135999999998" viewBox="0.9 -37.5 176.73 37.8" height="52.27442946534653" data-palette-color="#a56d3a"><path d="M17.85-37.4L17.85 0 12.35 0 12.35-34.55Q9-33.6 7.05-31.3 5.1-29 5.1-25.55L5.1-25.55Q5.1-24.2 5.3-23.28 5.5-22.35 5.8-21.68 6.1-21 6.53-20.53 6.95-20.05 7.4-19.65L7.4-19.65Q4.4-19.65 2.65-21.03 0.9-22.4 0.9-25.7L0.9-25.7Q0.9-28.1 2.15-30.23 3.4-32.35 5.48-33.98 7.55-35.6 10.23-36.55 12.9-37.5 15.75-37.5L15.75-37.5Q16.3-37.5 16.82-37.48 17.35-37.45 17.85-37.4L17.85-37.4ZM49.95-37.4L53.3-37.4 53.3 0 46.6 0 34.05-28.15 34.05 0 30.7 0 30.7-34.45Q27.95-33.5 26.4-31.43 24.85-29.35 24.85-26L24.85-26Q24.85-24.45 25.1-23.38 25.35-22.3 25.7-21.58 26.05-20.85 26.47-20.4 26.9-19.95 27.25-19.65L27.25-19.65Q24.1-19.65 22.62-21.18 21.15-22.7 21.15-26.1L21.15-26.1Q21.15-28.15 21.97-30.18 22.8-32.2 24.3-33.83 25.8-35.45 27.9-36.48 30-37.5 32.55-37.5L32.55-37.5Q33.4-37.5 34.3-37.35 35.2-37.2 36.05-36.8L36.05-36.8 49.95-4.7 49.95-37.4ZM74.8-8.95L76.9-8.95Q75.45-6.95 73.92-5.63 72.4-4.3 70.95-3.3L70.95-3.3Q70.4-2.3 69.55-1.63 68.7-0.95 67.72-0.53 66.75-0.1 65.77 0.1 64.8 0.3 64 0.3L64 0.3Q61.8 0.3 60.37-0.4 58.95-1.1 58.1-2.18 57.25-3.25 56.9-4.58 56.55-5.9 56.55-7.1L56.55-7.1Q56.55-8.4 57.07-9.38 57.6-10.35 58.35-10.75L58.35-10.75Q59.65-14.5 60.9-18.18 62.15-21.85 62.55-25.55L62.55-25.55 67.59-26.55Q68.8-21.8 69.57-18.8 70.34-15.8 70.82-13.73 71.3-11.65 71.52-10.08 71.75-8.5 71.75-6.6L71.75-6.6Q72.59-7.15 73.34-7.78 74.09-8.4 74.8-8.95L74.8-8.95ZM66.45-6.95L66.45-6.95Q66.45-8.5 66.27-9.7 66.09-10.9 65.75-12.35 65.4-13.8 64.87-15.88 64.34-17.95 63.65-21.2L63.65-21.2Q63.35-18.4 62.42-15.85 61.5-13.3 60.75-10.6L60.75-10.6Q61.2-10.3 61.52-9.78 61.85-9.25 61.85-8.4L61.85-8.4Q61.85-7.45 61.35-6.95 60.85-6.45 60.25-6.45L60.25-6.45Q59.45-6.45 58.9-7.15L58.9-7.15Q59.3-5.4 60.3-4.42 61.3-3.45 62.95-3.45L62.95-3.45Q64.55-3.45 65.5-4.28 66.45-5.1 66.45-6.95ZM90.39-18.75L90.39-18.75Q90.39-15.25 87.52-12.9 84.64-10.55 79.54-10L79.54-10Q79.74-8 80.27-6.75 80.79-5.5 81.54-4.78 82.29-4.05 83.27-3.78 84.24-3.5 85.29-3.5L85.29-3.5Q87.69-3.5 89.79-4.75 91.89-6 93.19-8.95L93.19-8.95 94.79-8.95Q94.14-7.1 92.99-5.43 91.84-3.75 90.29-2.48 88.74-1.2 86.94-0.45 85.14 0.3 83.24 0.3L83.24 0.3Q81.49 0.3 79.87-0.3 78.24-0.9 76.99-2.27 75.74-3.65 74.97-5.85 74.19-8.05 74.19-11.25L74.19-11.25Q74.19-13.35 74.67-15.8 75.14-18.25 76.27-20.35 77.39-22.45 79.22-23.85 81.04-25.25 83.74-25.25L83.74-25.25Q84.99-25.25 86.17-24.98 87.34-24.7 88.29-23.98 89.24-23.25 89.82-22 90.39-20.75 90.39-18.75ZM79.49-11.95L79.49-11.95Q83.04-12.5 85.12-14.45 87.19-16.4 87.19-19.25L87.19-19.25Q87.19-21.15 86.54-21.98 85.89-22.8 84.69-22.8L84.69-22.8Q83.39-22.8 82.42-21.8 81.44-20.8 80.79-19.23 80.14-17.65 79.82-15.73 79.49-13.8 79.49-11.95ZM106.59-25L111.59-25 111.59-8Q111.59-7.5 111.64-6.75 111.69-6 111.92-5.28 112.14-4.55 112.59-4.03 113.04-3.5 113.84-3.5L113.84-3.5Q116.29-3.5 117.44-8.95L117.44-8.95 119.29-8.95Q118.74-5.8 117.89-3.98 117.04-2.15 116.09-1.2 115.14-0.25 114.14 0.03 113.14 0.3 112.34 0.3L112.34 0.3Q111.19 0.3 110.37-0.1 109.54-0.5 108.97-1.15 108.39-1.8 108.04-2.65 107.69-3.5 107.49-4.45L107.49-4.45Q106.74-2.5 105.07-1.1 103.39 0.3 100.99 0.3L100.99 0.3Q99.49 0.3 97.97-0.3 96.44-0.9 95.22-2.27 93.99-3.65 93.22-5.83 92.44-8 92.44-11.15L92.44-11.15Q92.44-13.45 92.97-15.95 93.49-18.45 94.64-20.5 95.79-22.55 97.59-23.9 99.39-25.25 101.94-25.25L101.94-25.25Q102.54-25.25 103.22-25.13 103.89-25 104.52-24.7 105.14-24.4 105.69-23.88 106.24-23.35 106.59-22.6L106.59-22.6 106.59-25ZM102.24-3.5L102.24-3.5Q102.99-3.5 103.77-3.93 104.54-4.35 105.17-5.08 105.79-5.8 106.19-6.8 106.59-7.8 106.59-8.95L106.59-8.95 106.59-20.35Q106.24-21.15 105.52-21.83 104.79-22.5 103.64-22.5L103.64-22.5Q102.04-22.5 100.89-21.43 99.74-20.35 99.04-18.73 98.34-17.1 98.02-15.18 97.69-13.25 97.69-11.5L97.69-11.5Q97.69-7.2 98.87-5.35 100.04-3.5 102.24-3.5ZM117.39-25L122.39-25 122.39-20.8Q122.99-21.7 123.56-22.5 124.14-23.3 124.84-23.9 125.54-24.5 126.39-24.88 127.24-25.25 128.29-25.25L128.29-25.25Q129.99-25.25 130.79-24.38 131.59-23.5 131.59-22.25L131.59-22.25Q131.59-21.5 131.34-21 131.09-20.5 130.74-20.2 130.39-19.9 129.99-19.78 129.59-19.65 129.29-19.65L129.29-19.65Q128.84-19.65 128.56-19.85 128.29-20.05 128.01-20.28 127.74-20.5 127.39-20.7 127.04-20.9 126.49-20.9L126.49-20.9Q125.34-20.9 124.29-20.1 123.24-19.3 122.39-18.4L122.39-18.4 122.39 0 117.39 0 117.39-25ZM145.54-17.35L145.54-17.35Q145.94-17.7 146.16-18.48 146.39-19.25 146.39-19.95L146.39-19.95Q146.39-21.1 145.66-21.85 144.94-22.6 143.64-22.6L143.64-22.6Q142.29-22.6 141.39-21.6 140.49-20.6 139.94-19.07 139.39-17.55 139.16-15.68 138.94-13.8 138.94-12L138.94-12Q138.94-9.35 139.41-7.7 139.89-6.05 140.69-5.13 141.49-4.2 142.56-3.85 143.64-3.5 144.84-3.5L144.84-3.5Q147.49-3.5 149.31-4.83 151.14-6.15 152.44-8.95L152.44-8.95 154.14-8.95Q153.54-7.1 152.44-5.43 151.34-3.75 149.89-2.48 148.44-1.2 146.74-0.45 145.04 0.3 143.19 0.3L143.19 0.3Q141.44 0.3 139.74-0.3 138.04-0.9 136.69-2.27 135.34-3.65 134.49-5.88 133.64-8.1 133.64-11.35L133.64-11.35Q133.64-13.45 134.01-15.88 134.39-18.3 135.41-20.38 136.44-22.45 138.24-23.85 140.04-25.25 142.89-25.25L142.89-25.25Q146.04-25.25 147.69-23.73 149.34-22.2 149.34-19.25L149.34-19.25Q149.34-18 148.86-17.15 148.39-16.3 147.39-16.3L147.39-16.3Q146.29-16.3 145.54-17.35ZM152.38-34.3L157.38-35 157.38-21.2Q158.13-22.55 158.91-23.38 159.68-24.2 160.48-24.6 161.28-25 162.01-25.13 162.73-25.25 163.38-25.25L163.38-25.25Q165.63-25.25 167.01-24.4 168.38-23.55 169.08-22.23 169.78-20.9 170.01-19.33 170.23-17.75 170.23-16.3L170.23-16.3Q170.23-15.4 170.18-14.33 170.13-13.25 170.08-12.13 170.03-11 169.98-9.88 169.93-8.75 169.93-7.8L169.93-7.8Q169.93-7.4 169.98-6.68 170.03-5.95 170.23-5.25 170.43-4.55 170.88-4.03 171.33-3.5 172.18-3.5L172.18-3.5Q173.33-3.5 174.26-4.8 175.18-6.1 175.78-8.95L175.78-8.95 177.63-8.95Q177.08-5.8 176.23-3.98 175.38-2.15 174.43-1.2 173.48-0.25 172.53 0.03 171.58 0.3 170.78 0.3L170.78 0.3Q169.18 0.3 168.08-0.33 166.98-0.95 166.28-2 165.58-3.05 165.26-4.45 164.93-5.85 164.93-7.35L164.93-7.35Q164.93-7.8 164.96-9.03 164.98-10.25 165.01-11.65 165.03-13.05 165.06-14.3 165.08-15.55 165.08-16.05L165.08-16.05Q165.08-17.65 164.83-18.7 164.58-19.75 164.13-20.35 163.68-20.95 163.11-21.2 162.53-21.45 161.88-21.45L161.88-21.45Q160.33-21.45 159.21-20.2 158.08-18.95 157.38-16L157.38-16 157.38 0 152.38 0 152.38-34.3Z" opacity="1" transform="matrix(1,0,0,1,0,0)" fill="#a56d3a" class="undefined-text-0" data-fill-palette-color="primary" id="text-0"></path></svg></g></svg></g></svg></g></svg></g></svg></g></svg></g></svg></g><path d="M192.87 91.463L192.87 31.347 8.364 31.347 8.364 215.853 192.87 215.853 192.87 155.737 188.156 155.737 188.156 211.139 13.078 211.139 13.078 36.061 188.156 36.061 188.156 91.463Z" fill="#a56d3a" stroke="transparent" data-fill-palette-color="primary"></path></svg></g><defs></defs></svg><rect width="395.52" height="247.2" fill="none" stroke="none" visibility="hidden"></rect></g></svg></g></svg>