<?xml version="1.0" encoding="UTF-8"?>
<!DOCTYPE svg PUBLIC "-//W3C//DTD SVG 1.1//EN" "http://www.w3.org/Graphics/SVG/1.1/DTD/svg11.dtd">
<svg xmlns="http://www.w3.org/2000/svg" version="1.1" width="256px" height="256px" style="shape-rendering:geometricPrecision; text-rendering:geometricPrecision; image-rendering:optimizeQuality; fill-rule:evenodd; clip-rule:evenodd" xmlns:xlink="http://www.w3.org/1999/xlink">
<g><path style="opacity:0.989" fill="#2daae1" d="M 111.5,-0.5 C 122.167,-0.5 132.833,-0.5 143.5,-0.5C 197.548,8.7041 233.382,39.3708 251,91.5C 252.715,98.2585 254.215,104.925 255.5,111.5C 255.5,122.167 255.5,132.833 255.5,143.5C 246.296,197.548 215.629,233.382 163.5,251C 156.741,252.715 150.075,254.215 143.5,255.5C 132.833,255.5 122.167,255.5 111.5,255.5C 57.4517,246.296 21.6184,215.629 4,163.5C 2.28494,156.741 0.784944,150.075 -0.5,143.5C -0.5,132.833 -0.5,122.167 -0.5,111.5C 8.7041,57.4517 39.3708,21.6184 91.5,4C 98.2585,2.28494 104.925,0.784944 111.5,-0.5 Z"/></g>
<g><path style="opacity:1" fill="#fdfefe" d="M 64.5,143.5 C 68.5,142.833 72.5,142.167 76.5,141.5C 77.2389,141.631 77.9056,141.464 78.5,141C 61.8838,136.25 53.5504,125.417 53.5,108.5C 57.2009,110.903 61.2009,111.737 65.5,111C 51.7873,98.5516 48.9539,84.0516 57,67.5C 73.6245,87.2857 94.7912,98.619 120.5,101.5C 122.265,102.461 124.265,102.795 126.5,102.5C 126.768,100.901 126.434,99.5676 125.5,98.5C 124.658,82.015 131.658,70.1817 146.5,63C 153.717,60.145 161.051,59.8116 168.5,62C 174.392,64.528 179.892,67.6947 185,71.5C 191.746,69.807 198.08,67.1403 204,63.5C 202.218,70.8484 198.051,76.6817 191.5,81C 197.273,80.4038 202.939,79.4038 208.5,78C 204.018,83.6492 199.018,88.8158 193.5,93.5C 193.161,128.678 179.161,156.844 151.5,178C 117.176,199.118 82.509,199.784 47.5,180C 64.8783,180.484 80.5449,175.65 94.5,165.5C 80.2156,163.867 70.2156,156.533 64.5,143.5 Z"/></g>
<g><path style="opacity:1" fill="#a6daf2" d="M 125.5,98.5 C 126.434,99.5676 126.768,100.901 126.5,102.5C 124.265,102.795 122.265,102.461 120.5,101.5C 122.167,101.5 123.833,101.5 125.5,101.5C 125.5,100.5 125.5,99.5 125.5,98.5 Z"/></g>
<g><path style="opacity:1" fill="#6ec3ea" d="M 76.5,141.5 C 72.5,142.167 68.5,142.833 64.5,143.5C 63.9569,143.44 63.6236,143.107 63.5,142.5C 67.7828,141.508 72.1161,141.174 76.5,141.5 Z"/></g>
</svg>
